<svg width="1440" height="4063" viewBox="0 0 1440 4063" fill="none" xmlns="http://www.w3.org/2000/svg">
<g clip-path="url(#clip0_595_3104)">
<rect width="1440" height="4063" fill="url(#paint0_radial_595_3104)"/>
<rect width="1440" height="4063" fill="black" fill-opacity="0.2"/>
<path d="M745.707 1305.43C747.977 1307.59 749.733 1309.69 751.184 1311.97C753.554 1315.69 755.206 1320.05 756.847 1326.26C757.149 1331.69 756.944 1335.72 756.041 1339.55C755.132 1343.41 753.483 1347.22 750.717 1352.18C740.332 1365.67 735.752 1371.32 729.068 1379.11C724.76 1383.95 722.359 1387.12 720.118 1390.97C719.391 1389.89 718.594 1388.77 717.76 1387.63C716.802 1386.33 715.774 1384.96 714.727 1383.57C713.676 1382.18 712.603 1380.75 711.541 1379.3C707.478 1373.74 703.207 1368.92 699.468 1364.56C695.683 1360.14 692.482 1356.24 690.292 1352.33C685.94 1344.57 684.25 1333.17 685 1326.24C686.36 1319.24 689.324 1312.69 694.632 1306.46C693.96 1311.37 693.698 1315.44 693.902 1319.06C694.211 1324.52 695.573 1328.85 697.998 1333.49L698.024 1333.54L698.054 1333.59C702.768 1341.66 705.687 1345.29 709.422 1350.02L709.464 1350.08L709.51 1350.13C713.939 1355.15 715.653 1357.72 718.029 1362.12L720.229 1366.2L722.429 1362.12C724.755 1357.81 726.876 1355.27 731.412 1350.13L731.458 1350.08L731.501 1350.02C735.236 1345.29 738.153 1341.66 742.867 1333.59L742.896 1333.54L742.923 1333.49C747.204 1325.31 747.657 1318.25 745.707 1305.43Z" stroke="#9C7369" stroke-width="5"/>
<path d="M867.557 1205.19C870.559 1204.35 873.253 1203.9 875.953 1203.81C880.397 1203.65 885.033 1204.44 891.278 1206.16C896.165 1208.64 899.577 1210.85 902.47 1213.56C905.379 1216.29 907.871 1219.62 910.794 1224.48C917.335 1240.2 919.946 1246.97 923.378 1256.64C925.41 1262.72 926.962 1266.36 929.17 1270.2C927.875 1270.28 926.512 1270.39 925.116 1270.53C923.495 1270.69 921.787 1270.89 920.047 1271.08C918.301 1271.28 916.518 1271.48 914.718 1271.66C907.831 1272.34 901.478 1273.57 895.791 1274.57C890.035 1275.58 885.019 1276.36 880.508 1276.26C871.542 1276.08 860.752 1271.78 855.082 1267.64C849.674 1262.96 845.461 1257.13 842.704 1249.48C846.642 1252.52 850.046 1254.79 853.291 1256.43C858.197 1258.91 862.659 1259.93 867.914 1260.19L867.972 1260.19L868.029 1260.19C877.435 1260.22 882.069 1259.55 888.077 1258.74L888.146 1258.73L888.214 1258.72C894.82 1257.45 897.921 1257.28 902.958 1257.46L907.664 1257.64L905.196 1253.66C902.61 1249.49 901.466 1246.4 899.272 1239.92L899.25 1239.86L899.224 1239.8C896.979 1234.21 895.285 1229.89 890.628 1221.79L890.599 1221.74L890.569 1221.69C885.605 1213.91 879.698 1209.98 867.557 1205.19Z" stroke="#9C7369" stroke-width="5"/>
<path d="M820.61 1271.1C823.648 1271.88 826.211 1272.85 828.598 1274.12C832.507 1276.22 836.106 1279.21 840.612 1283.83C843.564 1288.41 845.38 1292.02 846.493 1295.81C847.612 1299.61 848.062 1303.74 848.104 1309.4C845.737 1326.21 844.543 1333.36 842.578 1343.4C841.22 1349.7 840.701 1353.64 840.652 1358.07C839.487 1357.49 838.242 1356.9 836.956 1356.32C835.475 1355.65 833.903 1354.96 832.302 1354.25C830.695 1353.55 829.054 1352.83 827.411 1352.08C821.12 1349.22 815.012 1347.09 809.594 1345.11C804.11 1343.1 799.388 1341.26 795.544 1338.92C787.905 1334.27 780.788 1325.16 778.01 1318.75C775.732 1312 775.069 1304.85 776.604 1296.85C778.452 1301.45 780.237 1305.12 782.202 1308.17C785.173 1312.77 788.506 1315.89 792.911 1318.75L792.96 1318.78L793.01 1318.81C801.112 1323.55 805.452 1325.29 811.051 1327.6L811.115 1327.63L811.181 1327.65C817.525 1329.87 820.29 1331.27 824.541 1333.95L828.489 1336.44L828.386 1331.81C828.279 1326.92 828.87 1323.67 830.277 1316.99L830.292 1316.92L830.302 1316.85C831.212 1310.91 831.956 1306.33 832.068 1297L832.069 1296.95L832.066 1296.89C831.747 1287.68 828.652 1281.32 820.61 1271.1Z" stroke="#9C7369" stroke-width="5"/>
<path d="M574.259 1205.19C571.258 1204.35 568.563 1203.9 565.863 1203.81C561.419 1203.65 556.783 1204.44 550.538 1206.16C545.651 1208.64 542.24 1210.85 539.347 1213.56C536.438 1216.29 533.946 1219.62 531.022 1224.48C524.482 1240.2 521.87 1246.97 518.438 1256.64C516.406 1262.72 514.854 1266.36 512.646 1270.2C513.942 1270.28 515.305 1270.39 516.701 1270.53C518.321 1270.69 520.03 1270.89 521.769 1271.08C523.515 1271.28 525.299 1271.48 527.098 1271.66C533.985 1272.34 540.339 1273.57 546.026 1274.57C551.781 1275.58 556.797 1276.36 561.309 1276.26C570.275 1276.08 581.065 1271.78 586.735 1267.64C592.142 1262.96 596.355 1257.13 599.113 1249.48C595.174 1252.52 591.77 1254.79 588.526 1256.43C583.619 1258.91 579.157 1259.93 573.902 1260.19L573.845 1260.19L573.787 1260.19C564.381 1260.22 559.748 1259.55 553.739 1258.74L553.67 1258.73L553.603 1258.72C546.997 1257.45 543.895 1257.28 538.858 1257.46L534.152 1257.64L536.62 1253.66C539.206 1249.49 540.351 1246.4 542.544 1239.92L542.566 1239.86L542.592 1239.8C544.837 1234.21 546.532 1229.89 551.188 1221.79L551.217 1221.74L551.248 1221.69C556.211 1213.91 562.118 1209.98 574.259 1205.19Z" stroke="#9C7369" stroke-width="5"/>
<path d="M567.348 1128.03C565.189 1125.81 563.09 1124.09 560.81 1122.66C557.048 1120.31 552.643 1118.67 546.368 1117.04C540.886 1116.74 536.815 1116.94 532.937 1117.84C529.036 1118.74 525.187 1120.38 520.188 1123.12C506.554 1133.43 500.86 1137.97 492.982 1144.61C488.137 1148.85 484.945 1151.22 481.093 1153.43C482.168 1154.14 483.282 1154.92 484.413 1155.73C485.731 1156.68 487.108 1157.7 488.511 1158.74C489.919 1159.78 491.358 1160.84 492.822 1161.9C498.425 1165.92 503.29 1170.16 507.692 1173.86C512.148 1177.61 516.088 1180.79 520.033 1182.96C527.875 1187.28 539.383 1188.96 546.389 1188.21C553.437 1186.87 560.032 1183.94 566.301 1178.71C561.356 1179.37 557.266 1179.63 553.633 1179.43C548.135 1179.13 543.765 1177.78 539.096 1175.38L539.045 1175.35L538.995 1175.32C530.856 1170.65 527.194 1167.76 522.416 1164.06L522.361 1164.01L522.31 1163.97C517.246 1159.58 514.654 1157.88 510.209 1155.52L506.043 1153.31L510.209 1151.11C514.561 1148.8 517.125 1146.69 522.31 1142.2L522.361 1142.15L522.416 1142.11C527.194 1138.41 530.856 1135.52 538.995 1130.85L539.045 1130.82L539.096 1130.79C547.331 1126.56 554.431 1126.1 567.348 1128.03Z" stroke="#9C7369" stroke-width="5"/>
<path d="M874.66 1128.17C876.819 1125.95 878.917 1124.23 881.198 1122.8C884.96 1120.45 889.365 1118.81 895.64 1117.18C901.122 1116.88 905.193 1117.08 909.071 1117.98C912.972 1118.88 916.821 1120.52 921.819 1123.26C935.454 1133.57 941.148 1138.11 949.025 1144.75C953.871 1148.99 957.063 1151.36 960.915 1153.57C959.839 1154.28 958.726 1155.06 957.595 1155.87C956.277 1156.82 954.9 1157.84 953.497 1158.88C952.089 1159.92 950.65 1160.98 949.186 1162.04C943.582 1166.06 938.718 1170.3 934.315 1174C929.86 1177.75 925.92 1180.93 921.975 1183.1C914.133 1187.42 902.625 1189.1 895.619 1188.35C888.571 1187.01 881.976 1184.08 875.707 1178.85C880.652 1179.52 884.741 1179.77 888.375 1179.57C893.873 1179.27 898.243 1177.92 902.912 1175.52L902.963 1175.49L903.013 1175.46C911.152 1170.79 914.814 1167.9 919.592 1164.2L919.646 1164.16L919.698 1164.11C924.762 1159.72 927.353 1158.02 931.799 1155.66L935.965 1153.45L931.799 1151.25C927.447 1148.94 924.883 1146.83 919.698 1142.34L919.646 1142.29L919.592 1142.25C914.814 1138.55 911.152 1135.66 903.013 1130.99L902.963 1130.96L902.912 1130.93C894.677 1126.7 887.577 1126.24 874.66 1128.17Z" stroke="#9C7369" stroke-width="5"/>
<path d="M621.203 1271.1C618.164 1271.88 615.602 1272.85 613.215 1274.12C609.305 1276.22 605.707 1279.21 601.201 1283.83C598.249 1288.41 596.433 1292.02 595.32 1295.81C594.2 1299.61 593.751 1303.74 593.708 1309.4C596.075 1326.21 597.269 1333.36 599.235 1343.4C600.593 1349.7 601.112 1353.64 601.16 1358.07C602.325 1357.49 603.571 1356.9 604.856 1356.32C606.337 1355.65 607.91 1354.96 609.51 1354.25C611.117 1353.55 612.758 1352.83 614.402 1352.08C620.692 1349.22 626.8 1347.09 632.219 1345.11C637.703 1343.1 642.424 1341.26 646.268 1338.92C653.907 1334.27 661.024 1325.16 663.802 1318.75C666.081 1312 666.743 1304.85 665.209 1296.85C663.361 1301.45 661.576 1305.12 659.61 1308.17C656.64 1312.77 653.306 1315.89 648.901 1318.75L648.852 1318.78L648.802 1318.81C640.7 1323.55 636.36 1325.29 630.761 1327.6L630.697 1327.63L630.632 1327.65C624.287 1329.87 621.523 1331.27 617.272 1333.95L613.324 1336.44L613.426 1331.81C613.533 1326.92 612.943 1323.67 611.535 1316.99L611.521 1316.92L611.51 1316.85C610.6 1310.91 609.857 1306.33 609.744 1297L609.744 1296.95L609.746 1296.89C610.066 1287.68 613.16 1281.32 621.203 1271.1Z" stroke="#9C7369" stroke-width="5"/>
<path d="M745.707 996.565C747.977 994.407 749.733 992.311 751.184 990.033C753.554 986.311 755.206 981.952 756.847 975.741C757.149 970.312 756.944 966.284 756.041 962.448C755.132 958.589 753.483 954.778 750.717 949.824C740.332 936.328 735.752 930.682 729.068 922.889C724.76 918.051 722.359 914.876 720.118 911.027C719.391 912.109 718.594 913.229 717.76 914.366C716.802 915.672 715.774 917.038 714.727 918.429C713.676 919.825 712.603 921.251 711.541 922.702C707.478 928.257 703.207 933.078 699.468 937.441C695.683 941.858 692.482 945.762 690.292 949.67C685.94 957.434 684.25 968.828 685 975.759C686.36 982.758 689.324 989.311 694.632 995.542C693.96 990.625 693.698 986.558 693.902 982.944C694.211 977.484 695.573 973.145 697.998 968.513L698.024 968.462L698.054 968.411C702.768 960.341 705.687 956.711 709.422 951.976L709.464 951.921L709.51 951.869C713.939 946.85 715.653 944.284 718.029 939.88L720.229 935.803L722.429 939.88C724.755 944.19 726.876 946.73 731.412 951.869L731.458 951.921L731.501 951.976C735.236 956.712 738.153 960.342 742.867 968.411L742.896 968.462L742.923 968.513C747.204 976.693 747.657 983.748 745.707 996.565Z" stroke="#9C7369" stroke-width="5"/>
<path d="M867.557 1096.81C870.559 1097.66 873.253 1098.1 875.953 1098.19C880.397 1098.35 885.033 1097.56 891.278 1095.84C896.165 1093.36 899.577 1091.15 902.47 1088.44C905.379 1085.72 907.871 1082.38 910.794 1077.52C917.335 1061.8 919.946 1055.03 923.378 1045.36C925.41 1039.28 926.962 1035.64 929.17 1031.8C927.875 1031.73 926.512 1031.61 925.116 1031.47C923.495 1031.31 921.787 1031.11 920.047 1030.92C918.301 1030.72 916.518 1030.52 914.718 1030.34C907.831 1029.66 901.478 1028.43 895.791 1027.43C890.035 1026.42 885.019 1025.64 880.508 1025.74C871.542 1025.92 860.752 1030.22 855.082 1034.36C849.674 1039.04 845.461 1044.87 842.704 1052.53C846.642 1049.48 850.046 1047.21 853.291 1045.57C858.197 1043.09 862.659 1042.07 867.914 1041.81L867.972 1041.81L868.029 1041.81C877.435 1041.78 882.069 1042.45 888.077 1043.26L888.146 1043.27L888.214 1043.28C894.82 1044.55 897.921 1044.72 902.958 1044.54L907.664 1044.36L905.196 1048.34C902.61 1052.51 901.466 1055.6 899.272 1062.08L899.25 1062.14L899.224 1062.21C896.979 1067.79 895.285 1072.12 890.628 1080.22L890.599 1080.26L890.569 1080.31C885.605 1088.09 879.698 1092.03 867.557 1096.81Z" stroke="#9C7369" stroke-width="5"/>
<path d="M820.61 1030.9C823.648 1030.12 826.211 1029.15 828.598 1027.88C832.507 1025.78 836.106 1022.79 840.612 1018.17C843.564 1013.59 845.38 1009.98 846.493 1006.2C847.612 1002.39 848.062 998.266 848.104 992.604C845.737 975.792 844.543 968.644 842.578 958.602C841.22 952.297 840.701 948.364 840.652 943.927C839.487 944.513 838.242 945.1 836.956 945.683C835.475 946.356 833.903 947.044 832.302 947.747C830.695 948.452 829.054 949.173 827.411 949.921C821.12 952.784 815.012 954.907 809.594 956.89C804.11 958.898 799.388 960.743 795.544 963.083C787.905 967.733 780.788 976.842 778.01 983.249C775.732 990.005 775.069 997.152 776.604 1005.15C778.452 1000.55 780.237 996.879 782.202 993.831C785.173 989.226 788.506 986.109 792.911 983.253L792.96 983.222L793.01 983.192C801.112 978.454 805.452 976.711 811.051 974.402L811.115 974.375L811.181 974.352C817.525 972.134 820.29 970.73 824.541 968.049L828.489 965.559L828.386 970.196C828.279 975.084 828.87 978.329 830.277 985.014L830.292 985.081L830.302 985.15C831.212 991.093 831.956 995.674 832.068 1005L832.069 1005.06L832.066 1005.11C831.747 1014.32 828.652 1020.68 820.61 1030.9Z" stroke="#9C7369" stroke-width="5"/>
<path d="M574.259 1096.81C571.258 1097.66 568.563 1098.1 565.863 1098.19C561.419 1098.35 556.783 1097.56 550.538 1095.84C545.651 1093.36 542.24 1091.15 539.347 1088.44C536.438 1085.72 533.946 1082.38 531.022 1077.52C524.482 1061.8 521.87 1055.03 518.438 1045.36C516.406 1039.28 514.854 1035.64 512.646 1031.8C513.942 1031.73 515.305 1031.61 516.701 1031.47C518.321 1031.31 520.03 1031.11 521.769 1030.92C523.515 1030.72 525.299 1030.52 527.098 1030.34C533.985 1029.66 540.339 1028.43 546.026 1027.43C551.781 1026.42 556.797 1025.64 561.309 1025.74C570.275 1025.92 581.065 1030.22 586.735 1034.36C592.142 1039.04 596.355 1044.87 599.113 1052.53C595.174 1049.48 591.77 1047.21 588.526 1045.57C583.619 1043.09 579.157 1042.07 573.902 1041.81L573.845 1041.81L573.787 1041.81C564.381 1041.78 559.748 1042.45 553.739 1043.26L553.67 1043.27L553.603 1043.28C546.997 1044.55 543.895 1044.72 538.858 1044.54L534.152 1044.36L536.62 1048.34C539.206 1052.51 540.351 1055.6 542.544 1062.08L542.566 1062.14L542.592 1062.21C544.837 1067.79 546.532 1072.12 551.188 1080.22L551.217 1080.26L551.248 1080.31C556.211 1088.09 562.118 1092.03 574.259 1096.81Z" stroke="#9C7369" stroke-width="5"/>
<path d="M621.203 1030.9C618.164 1030.12 615.602 1029.15 613.215 1027.88C609.305 1025.78 605.707 1022.79 601.201 1018.17C598.249 1013.59 596.433 1009.98 595.32 1006.2C594.2 1002.39 593.751 998.266 593.708 992.604C596.075 975.792 597.269 968.644 599.235 958.602C600.593 952.297 601.112 948.364 601.16 943.927C602.325 944.513 603.571 945.1 604.856 945.683C606.337 946.356 607.91 947.044 609.51 947.747C611.117 948.452 612.758 949.173 614.402 949.921C620.692 952.784 626.8 954.907 632.219 956.89C637.703 958.898 642.424 960.743 646.268 963.083C653.907 967.733 661.024 976.842 663.802 983.249C666.081 990.005 666.743 997.152 665.209 1005.15C663.361 1000.55 661.576 996.879 659.61 993.831C656.64 989.226 653.306 986.109 648.901 983.253L648.852 983.222L648.802 983.192C640.7 978.454 636.36 976.711 630.761 974.402L630.697 974.375L630.632 974.352C624.287 972.134 621.523 970.73 617.272 968.049L613.324 965.559L613.426 970.196C613.533 975.084 612.943 978.329 611.535 985.014L611.521 985.081L611.51 985.15C610.6 991.093 609.857 995.674 609.744 1005L609.744 1005.06L609.746 1005.11C610.066 1014.32 613.16 1020.68 621.203 1030.9Z" stroke="#9C7369" stroke-width="5"/>
<path d="M721.164 1007.82C800.739 1007.82 865.188 1071.75 865.188 1150.54C865.187 1229.33 800.739 1293.26 721.164 1293.26C641.589 1293.26 577.141 1229.33 577.141 1150.54C577.141 1071.75 641.589 1007.82 721.164 1007.82Z" stroke="#9C7369" stroke-width="8"/>
<path d="M620.065 1514.74C624.281 1526.45 627.232 1533.6 623.697 1548.98C608.428 1585.17 589.684 1591.96 563.433 1601.3C537.181 1610.64 512.327 1617.08 490.228 1622.8C472.373 1627.07 464.35 1630.19 452.503 1636.64C452.268 1627.44 448.405 1613.18 445.233 1597.88C439.653 1575.86 433.379 1551.08 428.99 1523.7C424.601 1496.31 421.58 1476.7 446.143 1445.98C457.998 1435.5 464.327 1432.91 476.674 1430.95M477.944 1432.08C470.798 1444.28 468.427 1453.85 468.902 1471.99C469.289 1488.41 471.898 1501.72 473.646 1511.72C475.937 1524.84 477.606 1530.94 481.344 1543.42C485.082 1555.89 486.885 1564.67 487.512 1575.58C497.289 1570.53 504.824 1568.5 519.535 1564.91C532.33 1562.17 538.243 1560.23 550.903 1555.93C560.558 1552.64 573.546 1548.52 588.207 1540.96C604.428 1532.65 610.526 1526.72 617.844 1514.62" stroke="#9C7369" stroke-width="5"/>
<path d="M454.389 1416.88C452.654 1429.24 451.928 1436.96 441.604 1448.94C411.141 1473.9 391.341 1471.16 363.692 1467.16C336.043 1463.16 310.99 1457.24 288.715 1451.98C270.883 1447.41 262.31 1446.42 248.787 1446.6C252.877 1438.34 256.12 1423.88 260.459 1408.83C265.807 1386.69 271.824 1361.79 280.735 1335.45C289.647 1309.11 296.137 1290.3 332.284 1274.55C347.696 1270.8 354.524 1271.46 366.387 1275.5M366.987 1277.1C354.946 1284.57 348.367 1291.95 340.306 1308.26C332.973 1323.01 329.064 1336.03 325.939 1345.72C321.841 1358.42 320.467 1364.61 317.949 1377.42C315.431 1390.24 312.926 1398.87 308.383 1408.83C319.416 1408.93 327.048 1410.65 341.773 1414.35C354.4 1417.91 360.553 1418.95 373.793 1421.06C383.891 1422.66 397.339 1425.08 413.874 1425.24C432.145 1425.46 440.328 1423.05 452.473 1415.74" stroke="#9C7369" stroke-width="5"/>
<path d="M358.202 1250.28C350.404 1260.53 344.925 1267.27 329.915 1272.61C290.936 1278.98 275.272 1265.97 253.487 1247.65C231.702 1229.32 213.132 1210.65 196.623 1194.04C183.588 1180.42 176.704 1174.97 164.961 1167.94C172.701 1162.64 182.869 1151.29 194.286 1139.99C210.191 1122.81 228.081 1103.48 249.198 1084.4C270.314 1065.32 285.502 1051.76 324.685 1056.74C339.876 1061.55 345.424 1065.78 353.584 1075.75M353.287 1077.51C339.098 1077.86 329.664 1081.04 314.396 1091.5C300.556 1100.94 290.543 1110.64 282.909 1117.73C272.9 1127.04 268.554 1131.91 259.849 1142.16C251.143 1152.41 244.582 1158.88 235.583 1165.48C245.043 1171.43 250.739 1177.05 261.54 1188.23C270.607 1198.16 275.375 1202.38 285.711 1211.32C293.594 1218.15 303.948 1227.49 318.116 1236.42C333.748 1246.34 343.978 1248.15 358.17 1248.01" stroke="#9C7369" stroke-width="5"/>
<path d="M358.544 1049.05C346.984 1053.79 339.941 1057.06 324.332 1054.28C287.267 1040.82 279.561 1022.51 268.949 996.861C258.336 971.212 250.703 946.815 243.917 925.122C238.791 907.578 235.283 899.751 228.248 888.283C237.471 887.614 251.614 883.1 266.829 879.223C288.687 872.634 313.271 865.226 340.569 859.568C367.867 853.909 387.425 849.978 419.429 872.937C430.507 884.224 433.414 890.391 435.954 902.57M434.882 903.885C422.295 897.361 412.569 895.457 394.371 896.788C377.898 897.95 364.653 901.173 354.693 903.384C341.632 906.282 335.578 908.23 323.224 912.535C310.871 916.84 302.138 919.048 291.214 920.187C296.747 929.666 299.14 937.058 303.435 951.509C306.786 964.096 309.014 969.881 313.932 982.26C317.683 991.7 322.435 1004.41 330.713 1018.63C339.819 1034.36 346.065 1040.14 358.558 1046.84" stroke="#9C7369" stroke-width="5"/>
<path d="M393.746 1299.2C370.306 1282.36 361.309 1271.48 357.535 1251.43C355.471 1225.97 361.53 1207.62 376.863 1190.62" stroke="#9C7369" stroke-width="4"/>
<path d="M508.785 1434.08C481.843 1433.75 468.928 1430.14 454.458 1416.37C438.079 1397.38 431.777 1379.51 433.027 1357.56" stroke="#9C7369" stroke-width="4"/>
<path d="M365.602 1110.92C353.204 1087.01 350.339 1073.88 355.797 1054.44C365.009 1030.79 377.972 1016.55 398.126 1007" stroke="#9C7369" stroke-width="4"/>
<path d="M512.836 858.599C485.914 857.518 480.943 854.527 456.105 873.536C431.266 892.545 432.589 916.968 432.674 938.947" stroke="#9C7369" stroke-width="4"/>
<path d="M449.527 880.002C436.74 878.138 428.729 877.333 416.794 866.82C392.423 835.898 396.35 815.978 402.01 788.165C407.67 760.351 415.19 735.171 421.879 712.783C427.602 694.864 429.095 686.237 429.638 672.614C438.032 676.812 452.927 680.215 468.384 684.728C491.18 690.325 516.818 696.623 543.797 705.849C570.777 715.075 590.034 721.791 604.505 758.352C607.577 773.912 606.524 780.784 601.667 792.696M599.974 793.284C592.831 781.085 585.491 774.388 568.921 766.113C553.947 758.587 540.579 754.526 530.651 751.286C517.632 747.038 511.247 745.595 498.026 742.937C484.805 740.279 475.944 737.674 465.8 733.003C465.106 744.117 462.897 751.788 458.246 766.586C453.856 779.272 452.435 785.46 449.527 798.777C447.309 808.934 444.063 822.457 443.007 839.112C441.792 857.515 443.862 865.78 450.822 878.084" stroke="#9C7369" stroke-width="5"/>
<path d="M993.433 1405.32C995.528 1417.36 996.483 1424.9 1007.08 1436.58C1038.02 1460.89 1057.56 1458.21 1084.84 1454.29C1112.11 1450.38 1136.76 1444.59 1158.67 1439.44C1176.2 1434.98 1184.67 1434.01 1198.07 1434.18C1193.77 1426.12 1190.12 1412.02 1185.36 1397.35C1179.39 1375.75 1172.67 1351.47 1163.03 1325.78C1153.4 1300.1 1146.4 1281.76 1110.1 1266.42C1094.71 1262.78 1087.97 1263.42 1076.33 1267.37M1075.79 1268.93C1087.95 1276.21 1094.69 1283.41 1103.18 1299.31C1110.89 1313.68 1115.16 1326.38 1118.55 1335.83C1123 1348.21 1124.55 1354.25 1127.43 1366.75C1130.32 1379.24 1133.06 1387.66 1137.87 1397.37C1126.94 1397.47 1119.43 1399.16 1104.95 1402.78C1092.55 1406.25 1086.48 1407.27 1073.42 1409.33C1063.47 1410.91 1050.22 1413.27 1033.83 1413.44C1015.74 1413.66 1007.55 1411.32 995.297 1404.2" stroke="#9C7369" stroke-width="5"/>
<path d="M1085.47 1245.58C1093.41 1255.72 1098.98 1262.39 1114.07 1267.53C1153.13 1273.36 1168.61 1260.13 1190.14 1241.51C1211.67 1222.9 1229.98 1203.97 1246.26 1187.13C1259.1 1173.34 1265.91 1167.79 1277.56 1160.6C1269.74 1155.41 1259.42 1144.2 1247.85 1133.06C1231.71 1116.09 1213.55 1097.02 1192.17 1078.23C1170.79 1059.44 1155.42 1046.09 1116.31 1051.61C1101.19 1056.62 1095.7 1060.93 1087.68 1071M1088 1072.76C1102.19 1072.92 1111.67 1075.97 1127.08 1086.22C1141.05 1095.47 1151.19 1105.03 1158.92 1112.02C1169.06 1121.19 1173.47 1126 1182.32 1136.13C1191.17 1146.25 1197.82 1152.64 1206.91 1159.11C1197.53 1165.19 1191.91 1170.89 1181.27 1182.21C1172.34 1192.27 1167.63 1196.55 1157.42 1205.64C1149.63 1212.57 1139.41 1222.05 1125.36 1231.18C1109.87 1241.31 1099.67 1243.26 1085.47 1243.31" stroke="#9C7369" stroke-width="5"/>
<path d="M1079.45 1045.49C1091.01 1050.24 1098.05 1053.51 1113.66 1050.73C1150.73 1037.27 1158.43 1018.96 1169.05 993.316C1179.67 967.669 1187.3 943.273 1194.09 921.581C1199.22 904.038 1202.73 896.212 1209.77 884.745C1200.55 884.074 1186.4 879.558 1171.19 875.679C1149.33 869.086 1124.75 861.674 1097.45 856.012C1070.15 850.349 1050.6 846.415 1018.59 869.369C1007.51 880.654 1004.6 886.82 1002.06 898.999M1003.13 900.315C1015.72 893.792 1025.45 891.89 1043.64 893.224C1060.12 894.389 1073.36 897.614 1083.32 899.826C1096.38 902.726 1102.44 904.674 1114.79 908.982C1127.14 913.289 1135.87 915.498 1146.8 916.639C1141.26 926.117 1138.87 933.508 1134.57 947.959C1131.22 960.545 1128.99 966.33 1124.07 978.708C1120.32 988.148 1115.56 1000.86 1107.28 1015.07C1098.17 1030.8 1091.93 1036.58 1079.43 1043.28" stroke="#9C7369" stroke-width="5"/>
<path d="M988.07 881C1000.86 879.135 1008.87 878.33 1020.8 867.817C1045.17 836.895 1041.25 816.975 1035.59 789.162C1029.93 761.348 1022.41 736.168 1015.72 713.78C1010 695.861 1008.5 687.234 1007.96 673.611C999.565 677.809 984.67 681.212 969.214 685.725C946.417 691.322 920.779 697.62 893.8 706.846C866.821 716.072 847.563 722.788 833.093 759.349C830.021 774.909 831.073 781.781 835.93 793.693M837.623 794.282C844.767 782.082 852.107 775.385 868.677 767.11C883.651 759.584 897.018 755.523 906.947 752.283C919.965 748.035 926.351 746.592 939.572 743.934C952.793 741.276 961.654 738.671 971.798 734C972.491 745.114 974.7 752.785 979.352 767.583C983.741 780.269 985.162 786.457 988.07 799.774C990.288 809.931 993.535 823.454 994.591 840.109C995.806 858.512 993.735 866.777 986.775 879.081" stroke="#9C7369" stroke-width="5"/>
<path d="M1041.2 1295.39C1065.22 1283.25 1075.2 1274.33 1082.07 1255.62C1088.33 1231.39 1086.04 1212.59 1075.18 1193.45" stroke="#9C7369" stroke-width="4"/>
<path d="M927.086 1441.12C954.021 1440.42 966.885 1436.63 981.163 1422.67C997.278 1403.46 1003.33 1385.5 1001.78 1363.57" stroke="#9C7369" stroke-width="4"/>
<path d="M788.957 1423.55C792.494 1444.44 779.361 1475.31 769.927 1487.5C760.494 1499.69 749.084 1510.73 736.692 1526.27C730.029 1534.63 723.146 1542.35 720.074 1547.96C715.529 1539.84 712.051 1535.12 703.457 1526.27C692.96 1515.04 681.155 1502.41 669.499 1487.5C657.842 1472.59 647.353 1451.25 650.412 1423.55M685.813 1429C683.021 1440.04 683.191 1446.71 688.288 1457.27C693.385 1467.83 699.864 1473.57 705.626 1480.27C712.684 1487.61 716.238 1491.49 720.076 1498.01C723.914 1491.49 726.745 1487.61 733.803 1480.27C739.565 1473.57 747.421 1467.38 751.144 1457.27C754.866 1447.16 755.103 1440.12 752.681 1429" stroke="#9C7369" stroke-width="5"/>
<path d="M916.017 1354.84C929.489 1371.28 932.669 1404.88 930.05 1420.3C927.432 1435.72 922.449 1451.14 918.781 1470.99C916.809 1481.66 914.325 1491.9 914.275 1498.35C906.152 1493.57 900.665 1491.21 888.486 1487.85C873.408 1483.37 856.45 1478.33 838.507 1471.23C820.565 1464.12 800.533 1450.82 789.731 1425.09M824.673 1411.9C827.544 1422.95 830.972 1428.68 840.8 1435.32C850.629 1441.95 859.35 1443.67 867.891 1446.6C877.926 1449.42 883.067 1451.01 889.769 1454.76C890.065 1447.11 890.742 1442.29 893.575 1432.31C895.538 1423.54 899.662 1414.15 898.095 1403.44C896.528 1392.73 893.285 1386.46 885.624 1377.99" stroke="#9C7369" stroke-width="5"/>
<path d="M722.597 871.098C878.055 871.098 1004.11 996.458 1004.11 1151.14C1004.11 1305.83 878.054 1431.19 722.597 1431.19C567.139 1431.19 441.078 1305.83 441.078 1151.14C441.078 996.458 567.139 871.098 722.597 871.098Z" stroke="#9C7369" stroke-width="8"/>
<path d="M991.351 1227.68C1011.31 1235.14 1031.06 1262.59 1036.59 1277.22C1042.13 1291.86 1045.63 1307.68 1052.5 1326.67C1056.2 1336.88 1059.23 1346.96 1062.45 1352.56C1053.01 1352.5 1047.08 1353.21 1034.85 1356.4C1019.55 1360.08 1002.35 1364.21 983.25 1367.05C964.152 1369.9 940.109 1368.42 917.761 1351.6M941.281 1322.71C949.351 1330.82 955.215 1334.06 967.065 1334.87C978.914 1335.69 987.32 1332.81 996.183 1331.06C1006.28 1328.48 1011.53 1327.27 1019.22 1327.16C1015.61 1320.41 1013.75 1315.9 1011.15 1305.86C1008.41 1297.3 1007.22 1287.12 1000.45 1278.65C993.679 1270.18 987.704 1266.38 976.798 1262.9" stroke="#9C7369" stroke-width="5"/>
<path d="M994.726 1080.93C1015.77 1077.53 1046.62 1091.58 1058.75 1101.54C1070.87 1111.5 1081.81 1123.49 1097.26 1136.57C1105.57 1143.6 1113.24 1150.85 1118.83 1154.12C1110.62 1158.73 1105.83 1162.28 1096.81 1171.09C1085.37 1181.85 1072.52 1193.94 1057.37 1205.86C1042.22 1217.77 1020.62 1228.38 992.822 1224.84M998.786 1188.14C1009.84 1191.19 1016.55 1191.1 1027.24 1185.94C1037.92 1180.79 1043.78 1174.13 1050.6 1168.23C1058.07 1161 1062.02 1157.36 1068.63 1153.46C1062.12 1149.38 1058.26 1146.39 1050.98 1138.96C1044.32 1132.89 1038.21 1124.65 1028.1 1120.65C1017.99 1116.65 1010.91 1116.31 999.705 1118.68" stroke="#9C7369" stroke-width="5"/>
<path d="M918.284 950.749C934.115 936.547 967.699 931.715 983.313 933.549C998.926 935.383 1014.66 939.564 1034.77 942.22C1045.59 943.649 1055.98 945.606 1062.46 945.335C1058.07 953.643 1055.98 959.211 1053.2 971.478C1049.46 986.681 1045.24 1003.78 1039 1021.96C1032.76 1040.14 1020.4 1060.7 995.111 1072.71M980.122 1038.66C991.073 1035.25 996.661 1031.56 1002.83 1021.47C1009 1011.37 1010.3 1002.62 1012.81 993.992C1015.15 983.882 1016.48 978.695 1019.91 971.851C1012.23 971.938 1007.35 971.504 997.186 969.187C988.281 967.674 978.652 964.045 967.977 966.135C957.301 968.224 951.165 971.759 943.042 979.791" stroke="#9C7369" stroke-width="5"/>
<path d="M793.43 878.029C800.629 858.063 828.062 838.111 842.777 832.449C857.492 826.786 873.442 823.147 892.54 816.114C902.807 812.332 912.961 809.214 918.57 805.951C918.674 815.357 919.497 821.265 922.934 833.425C926.924 848.637 931.41 865.747 934.621 884.758C937.833 903.77 936.765 927.751 920.132 950.192M890.479 927.025C898.546 918.901 901.723 913.025 902.338 901.204C902.953 889.384 899.892 881.032 897.971 872.214C895.182 862.169 893.869 856.953 893.62 849.29C886.849 852.955 882.323 854.845 872.202 857.537C863.585 860.353 853.308 861.632 844.855 868.465C836.401 875.297 832.663 881.291 829.327 892.196" stroke="#9C7369" stroke-width="5"/>
<path d="M651.114 878.716C647.443 857.821 661.366 826.984 671.34 814.824C681.315 802.664 693.368 791.655 706.469 776.147C713.513 767.809 720.787 760.104 724.04 754.508C728.808 762.633 732.46 767.363 741.494 776.24C752.525 787.499 764.931 800.163 777.175 815.107C789.418 830.051 800.414 851.419 797.116 879.106M759.824 873.558C762.796 862.529 762.635 855.858 757.293 845.282C751.95 834.706 745.137 828.952 739.084 822.234C731.665 814.875 727.931 810.988 723.904 804.45C719.841 810.966 716.848 814.836 709.389 822.154C703.3 828.841 695.004 835.008 691.054 845.105C687.103 855.203 686.835 862.25 689.357 873.369" stroke="#9C7369" stroke-width="5"/>
<path d="M526.034 956.513C511.724 940.787 506.963 907.317 508.878 891.738C510.793 876.16 515.084 860.452 517.848 840.384C519.335 829.594 521.355 819.217 521.105 812.758C529.495 817.1 535.121 819.162 547.523 821.878C562.892 825.548 580.177 829.677 598.547 835.82C616.918 841.963 637.678 854.202 649.736 879.371M615.219 894.466C611.818 883.56 608.105 878.003 597.913 871.893C587.722 865.782 578.874 864.531 570.151 862.06C559.93 859.772 554.686 858.466 547.774 855.073C547.832 862.74 547.375 867.601 544.992 877.749C543.427 886.636 539.717 896.254 541.791 906.891C543.865 917.528 547.418 923.631 555.515 931.698" stroke="#9C7369" stroke-width="5"/>
<path d="M450.34 1075.04C430.425 1067.46 410.956 1039.75 405.578 1025C400.201 1010.24 396.884 994.302 390.221 975.161C386.639 964.869 383.721 954.705 380.561 949.058C390.018 949.155 395.973 948.462 408.269 945.303C423.644 941.66 440.937 937.563 460.113 934.775C479.29 931.987 503.372 933.56 525.573 950.579M501.655 979.574C493.662 971.379 487.823 968.094 475.955 967.231C464.087 966.367 455.627 969.233 446.724 970.955C436.568 973.514 431.298 974.709 423.59 974.794C427.129 981.605 428.933 986.146 431.423 996.269C434.069 1004.9 435.135 1015.14 441.823 1023.7C448.51 1032.25 454.455 1036.1 465.344 1039.65" stroke="#9C7369" stroke-width="5"/>
<path d="M449.649 1216.17C428.651 1219.87 397.618 1206.09 385.37 1196.19C373.123 1186.3 362.027 1174.34 346.407 1161.34C338.008 1154.35 330.246 1147.13 324.613 1143.91C332.77 1139.15 337.517 1135.51 346.421 1126.5C357.715 1115.5 370.418 1103.13 385.414 1090.92C400.41 1078.71 421.867 1067.72 449.709 1070.94M444.216 1108.05C433.122 1105.12 426.416 1105.29 415.795 1110.63C405.175 1115.97 399.406 1122.76 392.665 1128.79C385.285 1136.19 381.385 1139.91 374.822 1143.93C381.382 1147.96 385.278 1150.93 392.653 1158.33C399.389 1164.37 405.608 1172.61 415.768 1176.52C425.928 1180.42 433.015 1180.68 444.187 1178.14" stroke="#9C7369" stroke-width="5"/>
<path d="M523.51 1344.21C507.6 1358.34 473.919 1362.84 458.272 1360.83C442.624 1358.81 426.863 1354.44 406.707 1351.55C395.87 1349.99 385.451 1347.91 378.957 1348.11C383.381 1339.8 385.493 1334.22 388.31 1321.9C392.106 1306.64 396.377 1289.48 402.681 1271.25C408.985 1253.02 421.434 1232.45 446.82 1220.63M461.755 1255.07C450.768 1258.38 445.155 1262.03 438.941 1272.13C432.727 1282.22 431.407 1291.01 428.862 1299.67C426.491 1309.82 425.141 1315.03 421.682 1321.88C429.391 1321.88 434.275 1322.37 444.46 1324.81C453.383 1326.43 463.026 1330.18 473.734 1328.19C484.442 1326.21 490.603 1322.71 498.769 1314.72" stroke="#9C7369" stroke-width="5"/>
<path d="M649.236 1424.6C642.415 1444.7 615.363 1465.16 600.758 1471.09C586.152 1477.03 570.273 1480.97 551.312 1488.35C541.117 1492.33 531.025 1495.63 525.478 1499C525.197 1489.6 524.262 1483.71 520.596 1471.61C516.32 1456.48 511.512 1439.46 507.943 1420.51C504.373 1401.56 504.988 1377.56 521.195 1354.81M551.28 1377.42C543.368 1385.7 540.302 1391.63 539.91 1403.46C539.519 1415.29 542.736 1423.59 544.823 1432.37C547.801 1442.36 549.212 1447.55 549.606 1455.2C556.306 1451.41 560.796 1449.44 570.864 1446.56C579.427 1443.58 589.678 1442.11 598.001 1435.12C606.325 1428.13 609.948 1422.07 613.078 1411.11" stroke="#9C7369" stroke-width="5"/>
<path d="M812.73 784.542C823.339 776.604 828.572 770.214 833.901 755.191C839.854 716.312 825.914 700.965 806.29 679.625C786.666 658.285 766.729 640.149 749.001 624.025C734.478 611.303 728.629 604.554 721.036 593C715.621 600.792 703.906 611.107 692.26 622.662C674.532 638.786 654.596 656.922 634.972 678.262C615.347 699.602 601.408 714.949 607.361 753.828C612.689 768.851 617.224 774.294 627.833 782.231M630.396 780.662C630.506 766.544 632.939 758.348 643.633 742.978C653.271 729.046 663.26 718.915 670.563 711.197C680.139 701.076 685.169 696.668 695.758 687.827C706.346 678.987 713.013 672.347 719.765 663.28C726.186 672.582 732.185 678.147 744.112 688.691C754.7 697.531 759.212 702.199 768.788 712.319C776.091 720.037 786.08 730.168 795.718 744.1C806.411 759.47 808.845 767.666 808.955 781.784" stroke="#9C7369" stroke-width="5"/>
<path d="M755.465 1502.66C778.069 1517.24 790.83 1521.36 810.549 1517.89C834.766 1511.12 849.974 1499.73 861.17 1480.78" stroke="#9C7369" stroke-width="4"/>
<path d="M1009.68 937.325C1008.91 910.535 1005.07 897.747 991.002 883.575C971.653 867.588 953.589 861.605 931.549 863.198" stroke="#9C7369" stroke-width="4"/>
<path d="M686.086 796.098C662.986 782.301 660.069 777.304 629.106 782.127C598.144 786.95 587.524 809.009 576.996 828.333" stroke="#9C7369" stroke-width="4"/>
<path d="M835.541 1507.09C831.369 1518.73 828.447 1525.83 831.964 1541.2C847.131 1577.42 865.724 1584.37 891.764 1593.91C917.805 1603.46 942.457 1610.11 964.377 1616.01C982.087 1620.43 990.046 1623.61 1001.8 1630.15C1002.03 1620.98 1005.85 1606.8 1008.98 1591.57C1014.5 1569.66 1020.7 1545.01 1025.04 1517.75C1029.37 1490.48 1032.35 1470.95 1007.97 1440.1C996.209 1429.55 989.931 1426.9 977.685 1424.84M976.426 1425.95C983.521 1438.18 985.879 1447.75 985.421 1465.83C985.048 1482.2 982.47 1495.45 980.744 1505.41C978.481 1518.46 976.83 1524.53 973.132 1536.94C969.434 1549.34 967.652 1558.08 967.038 1568.95C957.338 1563.83 949.864 1561.73 935.273 1558.02C922.582 1555.18 916.716 1553.19 904.159 1548.78C894.582 1545.42 881.699 1541.19 867.154 1533.53C851.061 1525.1 845.01 1519.12 837.745 1507" stroke="#9C7369" stroke-width="5"/>
<path d="M648.384 1518.03C638.779 1526.04 632.587 1530.75 627.845 1545.8C622.712 1584.72 635.525 1599.97 653.561 1621.18C671.597 1642.39 689.893 1660.39 706.162 1676.39C719.487 1689.02 724.866 1695.73 731.869 1707.23C736.743 1699.4 747.338 1689.01 757.86 1677.38C773.888 1661.13 791.914 1642.86 809.631 1621.39C827.348 1599.92 839.932 1584.48 834.219 1545.64C829.253 1530.66 825.081 1525.24 815.358 1517.38M813.684 1517.72C813.689 1531.83 810.884 1541.29 801.258 1556.74C792.583 1570.73 783.559 1580.93 776.964 1588.7C768.316 1598.88 763.767 1603.32 754.188 1612.24C744.608 1621.15 738.585 1627.83 732.501 1636.94C726.583 1627.69 721.077 1622.16 710.134 1611.7C700.423 1602.93 696.277 1598.29 687.479 1588.24C680.769 1580.57 671.594 1570.5 662.71 1556.64C652.854 1541.34 650.577 1533.16 650.371 1519.04" stroke="#9C7369" stroke-width="5"/>
<path d="M859.469 825.112C846.892 801.41 837.773 791.621 818.857 785.085C794.399 779.237 775.535 781.803 756.467 792.91" stroke="#9C7369" stroke-width="4"/>
<path d="M1076.22 1115.56C1088.28 1091.49 1090.97 1078.31 1085.24 1058.95C1075.7 1035.43 1062.54 1021.37 1042.26 1012.09" stroke="#9C7369" stroke-width="4"/>
<path d="M580.188 1477.13C593.589 1500.38 603.046 1509.85 622.18 1515.72C646.828 1520.71 665.591 1517.5 684.257 1505.73" stroke="#9C7369" stroke-width="4"/>
<path d="M745.707 2882.43C747.977 2884.59 749.733 2886.69 751.184 2888.97C753.554 2892.69 755.206 2897.05 756.847 2903.26C757.149 2908.69 756.944 2912.72 756.041 2916.55C755.132 2920.41 753.483 2924.22 750.717 2929.18C740.332 2942.67 735.752 2948.32 729.068 2956.11C724.76 2960.95 722.359 2964.12 720.118 2967.97C719.391 2966.89 718.594 2965.77 717.76 2964.63C716.802 2963.33 715.774 2961.96 714.727 2960.57C713.676 2959.18 712.603 2957.75 711.541 2956.3C707.478 2950.74 703.207 2945.92 699.468 2941.56C695.683 2937.14 692.482 2933.24 690.292 2929.33C685.94 2921.57 684.25 2910.17 685 2903.24C686.36 2896.24 689.324 2889.69 694.632 2883.46C693.96 2888.37 693.698 2892.44 693.902 2896.06C694.211 2901.52 695.573 2905.85 697.998 2910.49L698.024 2910.54L698.054 2910.59C702.768 2918.66 705.687 2922.29 709.422 2927.02L709.464 2927.08L709.51 2927.13C713.939 2932.15 715.653 2934.72 718.029 2939.12L720.229 2943.2L722.429 2939.12C724.755 2934.81 726.876 2932.27 731.412 2927.13L731.458 2927.08L731.501 2927.02C735.236 2922.29 738.153 2918.66 742.867 2910.59L742.896 2910.54L742.923 2910.49C747.204 2902.31 747.657 2895.25 745.707 2882.43Z" stroke="#9C7369" stroke-width="5"/>
<path d="M867.557 2782.19C870.559 2781.35 873.253 2780.9 875.953 2780.81C880.397 2780.65 885.033 2781.44 891.278 2783.16C896.165 2785.64 899.577 2787.85 902.47 2790.56C905.379 2793.29 907.871 2796.62 910.794 2801.48C917.335 2817.2 919.946 2823.97 923.378 2833.64C925.41 2839.72 926.962 2843.36 929.17 2847.2C927.875 2847.28 926.512 2847.39 925.116 2847.53C923.495 2847.69 921.787 2847.89 920.047 2848.08C918.301 2848.28 916.518 2848.48 914.718 2848.66C907.831 2849.34 901.478 2850.57 895.791 2851.57C890.035 2852.58 885.019 2853.36 880.508 2853.26C871.542 2853.08 860.752 2848.78 855.082 2844.64C849.674 2839.96 845.461 2834.13 842.704 2826.48C846.642 2829.52 850.046 2831.79 853.291 2833.43C858.197 2835.91 862.659 2836.93 867.914 2837.19L867.972 2837.19L868.029 2837.19C877.435 2837.22 882.069 2836.55 888.077 2835.74L888.146 2835.73L888.214 2835.72C894.82 2834.45 897.921 2834.28 902.958 2834.46L907.664 2834.64L905.196 2830.66C902.61 2826.49 901.466 2823.4 899.272 2816.92L899.25 2816.86L899.224 2816.8C896.979 2811.21 895.285 2806.89 890.628 2798.79L890.599 2798.74L890.569 2798.69C885.605 2790.91 879.698 2786.98 867.557 2782.19Z" stroke="#9C7369" stroke-width="5"/>
<path d="M820.61 2848.1C823.648 2848.88 826.211 2849.85 828.598 2851.12C832.507 2853.22 836.106 2856.21 840.612 2860.83C843.564 2865.41 845.38 2869.02 846.493 2872.81C847.612 2876.61 848.062 2880.74 848.104 2886.4C845.737 2903.21 844.543 2910.36 842.578 2920.4C841.22 2926.7 840.701 2930.64 840.652 2935.07C839.487 2934.49 838.242 2933.9 836.956 2933.32C835.475 2932.65 833.903 2931.96 832.302 2931.25C830.695 2930.55 829.054 2929.83 827.411 2929.08C821.12 2926.22 815.012 2924.09 809.594 2922.11C804.11 2920.1 799.388 2918.26 795.544 2915.92C787.905 2911.27 780.788 2902.16 778.01 2895.75C775.732 2889 775.069 2881.85 776.604 2873.85C778.452 2878.45 780.237 2882.12 782.202 2885.17C785.173 2889.77 788.506 2892.89 792.911 2895.75L792.96 2895.78L793.01 2895.81C801.112 2900.55 805.452 2902.29 811.051 2904.6L811.115 2904.63L811.181 2904.65C817.525 2906.87 820.29 2908.27 824.541 2910.95L828.489 2913.44L828.386 2908.81C828.279 2903.92 828.87 2900.67 830.277 2893.99L830.292 2893.92L830.302 2893.85C831.212 2887.91 831.956 2883.33 832.068 2874L832.069 2873.95L832.066 2873.89C831.747 2864.68 828.652 2858.32 820.61 2848.1Z" stroke="#9C7369" stroke-width="5"/>
<path d="M574.259 2782.19C571.258 2781.35 568.563 2780.9 565.863 2780.81C561.419 2780.65 556.783 2781.44 550.538 2783.16C545.651 2785.64 542.24 2787.85 539.347 2790.56C536.438 2793.29 533.946 2796.62 531.022 2801.48C524.482 2817.2 521.87 2823.97 518.438 2833.64C516.406 2839.72 514.854 2843.36 512.646 2847.2C513.942 2847.28 515.305 2847.39 516.701 2847.53C518.321 2847.69 520.03 2847.89 521.769 2848.08C523.515 2848.28 525.299 2848.48 527.098 2848.66C533.985 2849.34 540.339 2850.57 546.026 2851.57C551.781 2852.58 556.797 2853.36 561.309 2853.26C570.275 2853.08 581.065 2848.78 586.735 2844.64C592.142 2839.96 596.355 2834.13 599.113 2826.48C595.174 2829.52 591.77 2831.79 588.526 2833.43C583.619 2835.91 579.157 2836.93 573.902 2837.19L573.845 2837.19L573.787 2837.19C564.381 2837.22 559.748 2836.55 553.739 2835.74L553.67 2835.73L553.603 2835.72C546.997 2834.45 543.895 2834.28 538.858 2834.46L534.152 2834.64L536.62 2830.66C539.206 2826.49 540.351 2823.4 542.544 2816.92L542.566 2816.86L542.592 2816.8C544.837 2811.21 546.532 2806.89 551.188 2798.79L551.217 2798.74L551.248 2798.69C556.211 2790.91 562.118 2786.98 574.259 2782.19Z" stroke="#9C7369" stroke-width="5"/>
<path d="M567.348 2705.03C565.189 2702.81 563.09 2701.09 560.81 2699.66C557.048 2697.31 552.643 2695.67 546.368 2694.04C540.886 2693.74 536.815 2693.94 532.937 2694.84C529.036 2695.74 525.187 2697.38 520.188 2700.12C506.554 2710.43 500.86 2714.97 492.982 2721.61C488.137 2725.85 484.945 2728.22 481.093 2730.43C482.168 2731.14 483.282 2731.92 484.413 2732.73C485.731 2733.68 487.108 2734.7 488.511 2735.74C489.919 2736.78 491.358 2737.84 492.822 2738.9C498.425 2742.92 503.29 2747.16 507.692 2750.86C512.148 2754.61 516.088 2757.79 520.033 2759.96C527.875 2764.28 539.383 2765.96 546.389 2765.21C553.437 2763.87 560.032 2760.94 566.301 2755.71C561.356 2756.37 557.266 2756.63 553.633 2756.43C548.135 2756.13 543.765 2754.78 539.096 2752.38L539.045 2752.35L538.995 2752.32C530.856 2747.65 527.194 2744.76 522.416 2741.06L522.361 2741.01L522.31 2740.97C517.246 2736.58 514.654 2734.88 510.209 2732.52L506.043 2730.31L510.209 2728.11C514.561 2725.8 517.125 2723.69 522.31 2719.2L522.361 2719.15L522.416 2719.11C527.194 2715.41 530.856 2712.52 538.995 2707.85L539.045 2707.82L539.096 2707.79C547.331 2703.56 554.431 2703.1 567.348 2705.03Z" stroke="#9C7369" stroke-width="5"/>
<path d="M874.66 2705.18C876.819 2702.95 878.917 2701.23 881.198 2699.8C884.96 2697.45 889.365 2695.81 895.64 2694.18C901.122 2693.88 905.193 2694.08 909.071 2694.98C912.972 2695.88 916.821 2697.52 921.819 2700.26C935.454 2710.57 941.148 2715.11 949.025 2721.75C953.871 2725.99 957.063 2728.36 960.915 2730.57C959.839 2731.28 958.726 2732.06 957.595 2732.87C956.277 2733.82 954.9 2734.84 953.497 2735.88C952.089 2736.92 950.65 2737.98 949.186 2739.04C943.582 2743.06 938.718 2747.3 934.315 2751C929.86 2754.75 925.92 2757.93 921.975 2760.1C914.133 2764.42 902.625 2766.1 895.619 2765.35C888.571 2764.01 881.976 2761.08 875.707 2755.85C880.652 2756.52 884.741 2756.77 888.375 2756.57C893.873 2756.27 898.243 2754.92 902.912 2752.52L902.963 2752.49L903.013 2752.46C911.152 2747.79 914.814 2744.9 919.592 2741.2L919.646 2741.16L919.698 2741.11C924.762 2736.72 927.353 2735.02 931.799 2732.66L935.965 2730.45L931.799 2728.25C927.447 2725.94 924.883 2723.83 919.698 2719.34L919.646 2719.29L919.592 2719.25C914.814 2715.55 911.152 2712.66 903.013 2707.99L902.963 2707.96L902.912 2707.93C894.677 2703.7 887.577 2703.25 874.66 2705.18Z" stroke="#9C7369" stroke-width="5"/>
<path d="M621.203 2848.1C618.164 2848.88 615.602 2849.85 613.215 2851.12C609.305 2853.22 605.707 2856.21 601.201 2860.83C598.249 2865.41 596.433 2869.02 595.32 2872.81C594.2 2876.61 593.751 2880.74 593.708 2886.4C596.075 2903.21 597.269 2910.36 599.235 2920.4C600.593 2926.7 601.112 2930.64 601.16 2935.07C602.325 2934.49 603.571 2933.9 604.856 2933.32C606.337 2932.65 607.91 2931.96 609.51 2931.25C611.117 2930.55 612.758 2929.83 614.402 2929.08C620.692 2926.22 626.8 2924.09 632.219 2922.11C637.703 2920.1 642.424 2918.26 646.268 2915.92C653.907 2911.27 661.024 2902.16 663.802 2895.75C666.081 2889 666.743 2881.85 665.209 2873.85C663.361 2878.45 661.576 2882.12 659.61 2885.17C656.64 2889.77 653.306 2892.89 648.901 2895.75L648.852 2895.78L648.802 2895.81C640.7 2900.55 636.36 2902.29 630.761 2904.6L630.697 2904.63L630.632 2904.65C624.287 2906.87 621.523 2908.27 617.272 2910.95L613.324 2913.44L613.426 2908.81C613.533 2903.92 612.943 2900.67 611.535 2893.99L611.521 2893.92L611.51 2893.85C610.6 2887.91 609.857 2883.33 609.744 2874L609.744 2873.95L609.746 2873.89C610.066 2864.68 613.16 2858.32 621.203 2848.1Z" stroke="#9C7369" stroke-width="5"/>
<path d="M745.707 2573.57C747.977 2571.41 749.733 2569.31 751.184 2567.03C753.554 2563.31 755.206 2558.95 756.847 2552.74C757.149 2547.31 756.944 2543.28 756.041 2539.45C755.132 2535.59 753.483 2531.78 750.717 2526.82C740.332 2513.33 735.752 2507.68 729.068 2499.89C724.76 2495.05 722.359 2491.88 720.118 2488.03C719.391 2489.11 718.594 2490.23 717.76 2491.37C716.802 2492.67 715.774 2494.04 714.727 2495.43C713.676 2496.82 712.603 2498.25 711.541 2499.7C707.478 2505.26 703.207 2510.08 699.468 2514.44C695.683 2518.86 692.482 2522.76 690.292 2526.67C685.94 2534.43 684.25 2545.83 685 2552.76C686.36 2559.76 689.324 2566.31 694.632 2572.54C693.96 2567.63 693.698 2563.56 693.902 2559.94C694.211 2554.48 695.573 2550.15 697.998 2545.51L698.024 2545.46L698.054 2545.41C702.768 2537.34 705.687 2533.71 709.422 2528.98L709.464 2528.92L709.51 2528.87C713.939 2523.85 715.653 2521.28 718.029 2516.88L720.229 2512.8L722.429 2516.88C724.755 2521.19 726.876 2523.73 731.412 2528.87L731.458 2528.92L731.501 2528.98C735.236 2533.71 738.153 2537.34 742.867 2545.41L742.896 2545.46L742.923 2545.51C747.204 2553.69 747.657 2560.75 745.707 2573.57Z" stroke="#9C7369" stroke-width="5"/>
<path d="M867.557 2673.81C870.559 2674.66 873.253 2675.1 875.953 2675.19C880.397 2675.35 885.033 2674.56 891.278 2672.84C896.165 2670.36 899.577 2668.15 902.47 2665.44C905.379 2662.72 907.871 2659.38 910.794 2654.52C917.335 2638.8 919.946 2632.03 923.378 2622.36C925.41 2616.28 926.962 2612.64 929.17 2608.8C927.875 2608.73 926.512 2608.61 925.116 2608.47C923.495 2608.31 921.787 2608.11 920.047 2607.92C918.301 2607.72 916.518 2607.52 914.718 2607.34C907.831 2606.66 901.478 2605.43 895.791 2604.43C890.035 2603.42 885.019 2602.64 880.508 2602.74C871.542 2602.92 860.752 2607.22 855.082 2611.36C849.674 2616.04 845.461 2621.87 842.704 2629.53C846.642 2626.48 850.046 2624.21 853.291 2622.57C858.197 2620.09 862.659 2619.07 867.914 2618.81L867.972 2618.81L868.029 2618.81C877.435 2618.78 882.069 2619.45 888.077 2620.26L888.146 2620.27L888.214 2620.28C894.82 2621.55 897.921 2621.72 902.958 2621.54L907.664 2621.36L905.196 2625.34C902.61 2629.51 901.466 2632.6 899.272 2639.08L899.25 2639.14L899.224 2639.21C896.979 2644.79 895.285 2649.12 890.628 2657.22L890.599 2657.26L890.569 2657.31C885.605 2665.09 879.698 2669.03 867.557 2673.81Z" stroke="#9C7369" stroke-width="5"/>
<path d="M820.61 2607.9C823.648 2607.12 826.211 2606.15 828.598 2604.88C832.507 2602.78 836.106 2599.79 840.612 2595.17C843.564 2590.59 845.38 2586.98 846.493 2583.2C847.612 2579.39 848.062 2575.27 848.104 2569.6C845.737 2552.79 844.543 2545.64 842.578 2535.6C841.22 2529.3 840.701 2525.36 840.652 2520.93C839.487 2521.51 838.242 2522.1 836.956 2522.68C835.475 2523.36 833.903 2524.04 832.302 2524.75C830.695 2525.45 829.054 2526.17 827.411 2526.92C821.12 2529.78 815.012 2531.91 809.594 2533.89C804.11 2535.9 799.388 2537.74 795.544 2540.08C787.905 2544.73 780.788 2553.84 778.01 2560.25C775.732 2567.01 775.069 2574.15 776.604 2582.15C778.452 2577.55 780.237 2573.88 782.202 2570.83C785.173 2566.23 788.506 2563.11 792.911 2560.25L792.96 2560.22L793.01 2560.19C801.112 2555.45 805.452 2553.71 811.051 2551.4L811.115 2551.37L811.181 2551.35C817.525 2549.13 820.29 2547.73 824.541 2545.05L828.489 2542.56L828.386 2547.2C828.279 2552.08 828.87 2555.33 830.277 2562.01L830.292 2562.08L830.302 2562.15C831.212 2568.09 831.956 2572.67 832.068 2582L832.069 2582.06L832.066 2582.11C831.747 2591.32 828.652 2597.68 820.61 2607.9Z" stroke="#9C7369" stroke-width="5"/>
<path d="M574.259 2673.81C571.258 2674.66 568.563 2675.1 565.863 2675.19C561.419 2675.35 556.783 2674.56 550.538 2672.84C545.651 2670.36 542.24 2668.15 539.347 2665.44C536.438 2662.72 533.946 2659.38 531.022 2654.52C524.482 2638.8 521.87 2632.03 518.438 2622.36C516.406 2616.28 514.854 2612.64 512.646 2608.8C513.942 2608.73 515.305 2608.61 516.701 2608.47C518.321 2608.31 520.03 2608.11 521.769 2607.92C523.515 2607.72 525.299 2607.52 527.098 2607.34C533.985 2606.66 540.339 2605.43 546.026 2604.43C551.781 2603.42 556.797 2602.64 561.309 2602.74C570.275 2602.92 581.065 2607.22 586.735 2611.36C592.142 2616.04 596.355 2621.87 599.113 2629.53C595.174 2626.48 591.77 2624.21 588.526 2622.57C583.619 2620.09 579.157 2619.07 573.902 2618.81L573.845 2618.81L573.787 2618.81C564.381 2618.78 559.748 2619.45 553.739 2620.26L553.67 2620.27L553.603 2620.28C546.997 2621.55 543.895 2621.72 538.858 2621.54L534.152 2621.36L536.62 2625.34C539.206 2629.51 540.351 2632.6 542.544 2639.08L542.566 2639.14L542.592 2639.21C544.837 2644.79 546.532 2649.12 551.188 2657.22L551.217 2657.26L551.248 2657.31C556.211 2665.09 562.118 2669.03 574.259 2673.81Z" stroke="#9C7369" stroke-width="5"/>
<path d="M621.203 2607.9C618.164 2607.12 615.602 2606.15 613.215 2604.88C609.305 2602.78 605.707 2599.79 601.201 2595.17C598.249 2590.59 596.433 2586.98 595.32 2583.2C594.2 2579.39 593.751 2575.27 593.708 2569.6C596.075 2552.79 597.269 2545.64 599.235 2535.6C600.593 2529.3 601.112 2525.36 601.16 2520.93C602.325 2521.51 603.571 2522.1 604.856 2522.68C606.337 2523.36 607.91 2524.04 609.51 2524.75C611.117 2525.45 612.758 2526.17 614.402 2526.92C620.692 2529.78 626.8 2531.91 632.219 2533.89C637.703 2535.9 642.424 2537.74 646.268 2540.08C653.907 2544.73 661.024 2553.84 663.802 2560.25C666.081 2567.01 666.743 2574.15 665.209 2582.15C663.361 2577.55 661.576 2573.88 659.61 2570.83C656.64 2566.23 653.306 2563.11 648.901 2560.25L648.852 2560.22L648.802 2560.19C640.7 2555.45 636.36 2553.71 630.761 2551.4L630.697 2551.37L630.632 2551.35C624.287 2549.13 621.523 2547.73 617.272 2545.05L613.324 2542.56L613.426 2547.2C613.533 2552.08 612.943 2555.33 611.535 2562.01L611.521 2562.08L611.51 2562.15C610.6 2568.09 609.857 2572.67 609.744 2582L609.744 2582.06L609.746 2582.11C610.066 2591.32 613.16 2597.68 621.203 2607.9Z" stroke="#9C7369" stroke-width="5"/>
<path d="M721.164 2584.82C800.739 2584.82 865.188 2648.75 865.188 2727.54C865.187 2806.33 800.739 2870.26 721.164 2870.26C641.589 2870.26 577.141 2806.33 577.141 2727.54C577.141 2648.75 641.589 2584.82 721.164 2584.82Z" stroke="#9C7369" stroke-width="8"/>
<path d="M620.065 3091.74C624.281 3103.45 627.232 3110.6 623.697 3125.98C608.428 3162.17 589.684 3168.96 563.433 3178.3C537.181 3187.64 512.327 3194.08 490.228 3199.8C472.373 3204.07 464.35 3207.19 452.503 3213.64C452.268 3204.44 448.405 3190.18 445.233 3174.88C439.653 3152.86 433.379 3128.08 428.99 3100.7C424.601 3073.31 421.58 3053.7 446.143 3022.98C457.998 3012.5 464.327 3009.91 476.674 3007.95M477.944 3009.08C470.798 3021.28 468.427 3030.85 468.902 3048.99C469.289 3065.41 471.898 3078.72 473.646 3088.72C475.937 3101.84 477.606 3107.94 481.344 3120.42C485.082 3132.89 486.885 3141.67 487.512 3152.58C497.289 3147.53 504.824 3145.5 519.535 3141.91C532.33 3139.17 538.243 3137.23 550.903 3132.93C560.558 3129.64 573.546 3125.52 588.207 3117.96C604.428 3109.65 610.526 3103.72 617.844 3091.62" stroke="#9C7369" stroke-width="5"/>
<path d="M454.389 2993.88C452.654 3006.24 451.928 3013.96 441.604 3025.94C411.141 3050.9 391.341 3048.16 363.692 3044.16C336.043 3040.16 310.99 3034.24 288.715 3028.98C270.883 3024.41 262.31 3023.42 248.787 3023.6C252.877 3015.34 256.12 3000.88 260.459 2985.83C265.807 2963.69 271.824 2938.79 280.735 2912.45C289.647 2886.11 296.137 2867.3 332.284 2851.55C347.696 2847.8 354.524 2848.46 366.387 2852.5M366.987 2854.1C354.946 2861.57 348.367 2868.95 340.306 2885.26C332.973 2900.01 329.064 2913.03 325.939 2922.72C321.841 2935.42 320.467 2941.61 317.949 2954.42C315.431 2967.24 312.926 2975.87 308.383 2985.83C319.416 2985.93 327.048 2987.65 341.773 2991.35C354.4 2994.91 360.553 2995.95 373.793 2998.06C383.891 2999.66 397.339 3002.08 413.874 3002.24C432.145 3002.46 440.328 3000.05 452.473 2992.74" stroke="#9C7369" stroke-width="5"/>
<path d="M358.202 2827.28C350.404 2837.53 344.925 2844.27 329.915 2849.61C290.936 2855.98 275.272 2842.97 253.487 2824.65C231.702 2806.32 213.132 2787.65 196.623 2771.04C183.588 2757.42 176.704 2751.97 164.961 2744.94C172.701 2739.64 182.869 2728.29 194.286 2716.99C210.191 2699.81 228.081 2680.48 249.198 2661.4C270.314 2642.32 285.502 2628.76 324.685 2633.74C339.876 2638.55 345.424 2642.78 353.584 2652.75M353.287 2654.51C339.098 2654.86 329.664 2658.04 314.396 2668.5C300.556 2677.94 290.543 2687.64 282.909 2694.73C272.9 2704.04 268.554 2708.91 259.849 2719.16C251.143 2729.41 244.582 2735.88 235.583 2742.48C245.043 2748.43 250.739 2754.05 261.54 2765.23C270.607 2775.16 275.375 2779.38 285.711 2788.32C293.594 2795.15 303.948 2804.49 318.116 2813.42C333.748 2823.34 343.978 2825.15 358.17 2825.01" stroke="#9C7369" stroke-width="5"/>
<path d="M358.544 2626.05C346.984 2630.79 339.941 2634.06 324.332 2631.28C287.267 2617.82 279.561 2599.51 268.949 2573.86C258.336 2548.21 250.703 2523.81 243.917 2502.12C238.791 2484.58 235.283 2476.75 228.248 2465.28C237.471 2464.61 251.614 2460.1 266.829 2456.22C288.687 2449.63 313.271 2442.23 340.569 2436.57C367.867 2430.91 387.425 2426.98 419.429 2449.94C430.507 2461.22 433.414 2467.39 435.954 2479.57M434.882 2480.89C422.295 2474.36 412.569 2472.46 394.371 2473.79C377.898 2474.95 364.653 2478.17 354.693 2480.38C341.632 2483.28 335.578 2485.23 323.224 2489.53C310.871 2493.84 302.138 2496.05 291.214 2497.19C296.747 2506.67 299.14 2514.06 303.435 2528.51C306.786 2541.1 309.014 2546.88 313.932 2559.26C317.683 2568.7 322.435 2581.41 330.713 2595.63C339.819 2611.36 346.065 2617.14 358.558 2623.84" stroke="#9C7369" stroke-width="5"/>
<path d="M393.746 2876.2C370.306 2859.36 361.309 2848.48 357.535 2828.43C355.471 2802.97 361.53 2784.62 376.863 2767.62" stroke="#9C7369" stroke-width="4"/>
<path d="M508.785 3011.08C481.843 3010.75 468.928 3007.14 454.458 2993.37C438.079 2974.38 431.777 2956.51 433.027 2934.56" stroke="#9C7369" stroke-width="4"/>
<path d="M365.602 2687.92C353.204 2664.01 350.339 2650.88 355.797 2631.44C365.009 2607.79 377.972 2593.55 398.126 2584" stroke="#9C7369" stroke-width="4"/>
<path d="M512.836 2435.6C485.914 2434.52 480.943 2431.53 456.105 2450.54C431.266 2469.55 432.589 2493.97 432.674 2515.95" stroke="#9C7369" stroke-width="4"/>
<path d="M449.527 2457C436.74 2455.14 428.729 2454.33 416.794 2443.82C392.423 2412.9 396.35 2392.98 402.01 2365.16C407.67 2337.35 415.19 2312.17 421.879 2289.78C427.602 2271.86 429.095 2263.24 429.638 2249.61C438.032 2253.81 452.927 2257.21 468.384 2261.73C491.18 2267.33 516.818 2273.62 543.797 2282.85C570.777 2292.07 590.034 2298.79 604.505 2335.35C607.577 2350.91 606.524 2357.78 601.667 2369.7M599.974 2370.28C592.831 2358.08 585.491 2351.39 568.921 2343.11C553.947 2335.59 540.579 2331.53 530.651 2328.29C517.632 2324.04 511.247 2322.59 498.026 2319.94C484.805 2317.28 475.944 2314.67 465.8 2310C465.106 2321.12 462.897 2328.79 458.246 2343.59C453.856 2356.27 452.435 2362.46 449.527 2375.78C447.309 2385.93 444.063 2399.46 443.007 2416.11C441.792 2434.51 443.862 2442.78 450.822 2455.08" stroke="#9C7369" stroke-width="5"/>
<path d="M993.433 2982.32C995.528 2994.37 996.483 3001.9 1007.08 3013.58C1038.02 3037.9 1057.56 3035.21 1084.84 3031.29C1112.11 3027.38 1136.76 3021.59 1158.67 3016.44C1176.2 3011.98 1184.67 3011.01 1198.07 3011.18C1193.77 3003.12 1190.12 2989.02 1185.36 2974.35C1179.39 2952.75 1172.67 2928.47 1163.03 2902.78C1153.4 2877.1 1146.4 2858.76 1110.1 2843.42C1094.71 2839.78 1087.97 2840.42 1076.33 2844.37M1075.79 2845.93C1087.95 2853.21 1094.69 2860.41 1103.18 2876.31C1110.89 2890.68 1115.16 2903.38 1118.55 2912.83C1123 2925.21 1124.55 2931.25 1127.43 2943.75C1130.32 2956.24 1133.06 2964.66 1137.87 2974.37C1126.94 2974.47 1119.43 2976.16 1104.95 2979.78C1092.55 2983.25 1086.48 2984.27 1073.42 2986.34C1063.47 2987.91 1050.22 2990.27 1033.83 2990.44C1015.74 2990.66 1007.55 2988.32 995.297 2981.2" stroke="#9C7369" stroke-width="5"/>
<path d="M1085.47 2822.58C1093.41 2832.72 1098.98 2839.39 1114.07 2844.53C1153.13 2850.36 1168.61 2837.13 1190.14 2818.51C1211.67 2799.9 1229.98 2780.97 1246.26 2764.13C1259.1 2750.34 1265.91 2744.79 1277.56 2737.6C1269.74 2732.41 1259.42 2721.2 1247.85 2710.06C1231.71 2693.09 1213.55 2674.02 1192.17 2655.23C1170.79 2636.44 1155.42 2623.09 1116.31 2628.61C1101.19 2633.62 1095.7 2637.93 1087.68 2648M1088 2649.76C1102.19 2649.92 1111.67 2652.97 1127.08 2663.22C1141.05 2672.47 1151.19 2682.03 1158.92 2689.02C1169.06 2698.19 1173.47 2703 1182.32 2713.13C1191.17 2723.25 1197.82 2729.64 1206.91 2736.11C1197.53 2742.19 1191.91 2747.89 1181.27 2759.21C1172.34 2769.27 1167.63 2773.55 1157.42 2782.64C1149.63 2789.57 1139.41 2799.05 1125.36 2808.18C1109.87 2818.31 1099.67 2820.26 1085.47 2820.31" stroke="#9C7369" stroke-width="5"/>
<path d="M1079.45 2622.49C1091.01 2627.24 1098.05 2630.51 1113.66 2627.73C1150.73 2614.27 1158.43 2595.96 1169.05 2570.32C1179.67 2544.67 1187.3 2520.27 1194.09 2498.58C1199.22 2481.04 1202.73 2473.21 1209.77 2461.74C1200.55 2461.07 1186.4 2456.56 1171.19 2452.68C1149.33 2446.09 1124.75 2438.67 1097.45 2433.01C1070.15 2427.35 1050.6 2423.41 1018.59 2446.37C1007.51 2457.65 1004.6 2463.82 1002.06 2476M1003.13 2477.31C1015.72 2470.79 1025.45 2468.89 1043.64 2470.22C1060.12 2471.39 1073.36 2474.61 1083.32 2476.83C1096.38 2479.73 1102.44 2481.67 1114.79 2485.98C1127.14 2490.29 1135.87 2492.5 1146.8 2493.64C1141.26 2503.12 1138.87 2510.51 1134.57 2524.96C1131.22 2537.55 1128.99 2543.33 1124.07 2555.71C1120.32 2565.15 1115.56 2577.86 1107.28 2592.07C1098.17 2607.8 1091.93 2613.58 1079.43 2620.28" stroke="#9C7369" stroke-width="5"/>
<path d="M988.07 2458C1000.86 2456.13 1008.87 2455.33 1020.8 2444.82C1045.17 2413.89 1041.25 2393.98 1035.59 2366.16C1029.93 2338.35 1022.41 2313.17 1015.72 2290.78C1010 2272.86 1008.5 2264.23 1007.96 2250.61C999.565 2254.81 984.67 2258.21 969.214 2262.73C946.417 2268.32 920.779 2274.62 893.8 2283.85C866.821 2293.07 847.563 2299.79 833.093 2336.35C830.021 2351.91 831.073 2358.78 835.93 2370.69M837.623 2371.28C844.767 2359.08 852.107 2352.38 868.677 2344.11C883.651 2336.58 897.018 2332.52 906.947 2329.28C919.965 2325.04 926.351 2323.59 939.572 2320.93C952.793 2318.28 961.654 2315.67 971.798 2311C972.491 2322.11 974.7 2329.78 979.352 2344.58C983.741 2357.27 985.162 2363.46 988.07 2376.77C990.288 2386.93 993.535 2400.45 994.591 2417.11C995.806 2435.51 993.735 2443.78 986.775 2456.08" stroke="#9C7369" stroke-width="5"/>
<path d="M1041.2 2872.39C1065.22 2860.25 1075.2 2851.33 1082.07 2832.62C1088.33 2808.39 1086.04 2789.59 1075.18 2770.45" stroke="#9C7369" stroke-width="4"/>
<path d="M927.086 3018.12C954.021 3017.42 966.885 3013.63 981.163 2999.67C997.278 2980.46 1003.33 2962.5 1001.78 2940.57" stroke="#9C7369" stroke-width="4"/>
<path d="M788.957 3000.55C792.494 3021.44 779.361 3052.31 769.927 3064.5C760.494 3076.69 749.084 3087.73 736.692 3103.27C730.029 3111.63 723.146 3119.35 720.074 3124.96C715.529 3116.84 712.051 3112.12 703.457 3103.27C692.96 3092.04 681.155 3079.41 669.499 3064.5C657.842 3049.59 647.353 3028.25 650.412 3000.55M685.813 3006C683.021 3017.04 683.191 3023.71 688.288 3034.27C693.385 3044.83 699.864 3050.57 705.626 3057.27C712.684 3064.61 716.238 3068.49 720.076 3075.01C723.914 3068.49 726.745 3064.61 733.803 3057.27C739.565 3050.57 747.421 3044.38 751.144 3034.27C754.866 3024.16 755.103 3017.12 752.681 3006" stroke="#9C7369" stroke-width="5"/>
<path d="M916.017 2931.84C929.489 2948.28 932.669 2981.88 930.05 2997.3C927.432 3012.72 922.449 3028.14 918.781 3047.99C916.809 3058.67 914.325 3068.9 914.275 3075.35C906.152 3070.57 900.665 3068.22 888.486 3064.85C873.408 3060.37 856.45 3055.33 838.507 3048.23C820.565 3041.12 800.533 3027.82 789.731 3002.09M824.673 2988.9C827.544 2999.95 830.972 3005.68 840.8 3012.32C850.629 3018.95 859.35 3020.67 867.891 3023.6C877.926 3026.42 883.067 3028.01 889.769 3031.76C890.065 3024.11 890.742 3019.29 893.575 3009.31C895.538 3000.54 899.662 2991.15 898.095 2980.44C896.528 2969.73 893.285 2963.46 885.624 2954.99" stroke="#9C7369" stroke-width="5"/>
<path d="M722.597 2448.1C878.055 2448.1 1004.11 2573.46 1004.11 2728.14C1004.11 2882.83 878.054 3008.19 722.597 3008.19C567.139 3008.19 441.078 2882.83 441.078 2728.14C441.078 2573.46 567.139 2448.1 722.597 2448.1Z" stroke="#9C7369" stroke-width="8"/>
<path d="M991.351 2804.68C1011.31 2812.14 1031.06 2839.59 1036.59 2854.22C1042.13 2868.86 1045.63 2884.68 1052.5 2903.67C1056.2 2913.88 1059.23 2923.96 1062.45 2929.56C1053.01 2929.5 1047.08 2930.21 1034.85 2933.4C1019.55 2937.08 1002.35 2941.21 983.25 2944.05C964.152 2946.9 940.109 2945.42 917.761 2928.6M941.281 2899.71C949.351 2907.82 955.215 2911.06 967.065 2911.87C978.914 2912.69 987.32 2909.81 996.183 2908.06C1006.28 2905.48 1011.53 2904.27 1019.22 2904.16C1015.61 2897.41 1013.75 2892.9 1011.15 2882.86C1008.41 2874.3 1007.22 2864.12 1000.45 2855.65C993.679 2847.18 987.704 2843.38 976.798 2839.9" stroke="#9C7369" stroke-width="5"/>
<path d="M994.726 2657.93C1015.77 2654.53 1046.62 2668.58 1058.75 2678.54C1070.87 2688.5 1081.81 2700.49 1097.26 2713.57C1105.57 2720.6 1113.24 2727.85 1118.83 2731.12C1110.62 2735.73 1105.83 2739.28 1096.81 2748.09C1085.37 2758.85 1072.52 2770.94 1057.37 2782.86C1042.22 2794.77 1020.62 2805.38 992.822 2801.84M998.786 2765.14C1009.84 2768.19 1016.55 2768.1 1027.24 2762.94C1037.92 2757.79 1043.78 2751.13 1050.6 2745.23C1058.07 2738 1062.02 2734.36 1068.63 2730.46C1062.12 2726.38 1058.26 2723.39 1050.98 2715.96C1044.32 2709.89 1038.21 2701.65 1028.1 2697.65C1017.99 2693.65 1010.91 2693.31 999.705 2695.68" stroke="#9C7369" stroke-width="5"/>
<path d="M918.284 2527.75C934.115 2513.55 967.699 2508.72 983.313 2510.55C998.926 2512.38 1014.66 2516.56 1034.77 2519.22C1045.59 2520.65 1055.98 2522.61 1062.46 2522.33C1058.07 2530.64 1055.98 2536.21 1053.2 2548.48C1049.46 2563.68 1045.24 2580.78 1039 2598.96C1032.76 2617.14 1020.4 2637.7 995.111 2649.71M980.122 2615.66C991.073 2612.25 996.661 2608.56 1002.83 2598.47C1009 2588.37 1010.3 2579.62 1012.81 2570.99C1015.15 2560.88 1016.48 2555.7 1019.91 2548.85C1012.23 2548.94 1007.35 2548.5 997.186 2546.19C988.281 2544.67 978.652 2541.04 967.977 2543.13C957.301 2545.22 951.165 2548.76 943.042 2556.79" stroke="#9C7369" stroke-width="5"/>
<path d="M793.43 2455.03C800.629 2435.06 828.062 2415.11 842.777 2409.45C857.492 2403.79 873.442 2400.15 892.54 2393.11C902.807 2389.33 912.961 2386.21 918.57 2382.95C918.674 2392.36 919.497 2398.27 922.934 2410.43C926.924 2425.64 931.41 2442.75 934.621 2461.76C937.833 2480.77 936.765 2504.75 920.132 2527.19M890.479 2504.02C898.546 2495.9 901.723 2490.02 902.338 2478.2C902.953 2466.38 899.892 2458.03 897.971 2449.21C895.182 2439.17 893.869 2433.95 893.62 2426.29C886.849 2429.95 882.323 2431.85 872.202 2434.54C863.585 2437.35 853.308 2438.63 844.855 2445.46C836.401 2452.3 832.663 2458.29 829.327 2469.2" stroke="#9C7369" stroke-width="5"/>
<path d="M651.114 2455.72C647.443 2434.82 661.366 2403.98 671.34 2391.82C681.315 2379.66 693.368 2368.65 706.469 2353.15C713.513 2344.81 720.787 2337.1 724.04 2331.51C728.808 2339.63 732.46 2344.36 741.494 2353.24C752.525 2364.5 764.931 2377.16 777.175 2392.11C789.418 2407.05 800.414 2428.42 797.116 2456.11M759.824 2450.56C762.796 2439.53 762.635 2432.86 757.293 2422.28C751.95 2411.71 745.137 2405.95 739.084 2399.23C731.665 2391.88 727.931 2387.99 723.904 2381.45C719.841 2387.97 716.848 2391.84 709.389 2399.15C703.3 2405.84 695.004 2412.01 691.054 2422.11C687.103 2432.2 686.835 2439.25 689.357 2450.37" stroke="#9C7369" stroke-width="5"/>
<path d="M526.034 2533.51C511.724 2517.79 506.963 2484.32 508.878 2468.74C510.793 2453.16 515.084 2437.45 517.848 2417.38C519.335 2406.59 521.355 2396.22 521.105 2389.76C529.495 2394.1 535.121 2396.16 547.523 2398.88C562.892 2402.55 580.177 2406.68 598.547 2412.82C616.918 2418.96 637.678 2431.2 649.736 2456.37M615.219 2471.47C611.818 2460.56 608.105 2455 597.913 2448.89C587.722 2442.78 578.874 2441.53 570.151 2439.06C559.93 2436.77 554.686 2435.47 547.774 2432.07C547.832 2439.74 547.375 2444.6 544.992 2454.75C543.427 2463.64 539.717 2473.25 541.791 2483.89C543.865 2494.53 547.418 2500.63 555.515 2508.7" stroke="#9C7369" stroke-width="5"/>
<path d="M450.34 2652.04C430.425 2644.46 410.956 2616.75 405.578 2602C400.201 2587.24 396.884 2571.3 390.221 2552.16C386.639 2541.87 383.721 2531.71 380.561 2526.06C390.018 2526.15 395.973 2525.46 408.269 2522.3C423.644 2518.66 440.937 2514.56 460.113 2511.78C479.29 2508.99 503.372 2510.56 525.573 2527.58M501.655 2556.57C493.662 2548.38 487.823 2545.09 475.955 2544.23C464.087 2543.37 455.627 2546.23 446.724 2547.95C436.568 2550.51 431.298 2551.71 423.59 2551.79C427.129 2558.6 428.933 2563.15 431.423 2573.27C434.069 2581.9 435.135 2592.14 441.823 2600.7C448.51 2609.25 454.455 2613.1 465.344 2616.65" stroke="#9C7369" stroke-width="5"/>
<path d="M449.649 2793.17C428.651 2796.87 397.618 2783.09 385.37 2773.19C373.123 2763.3 362.027 2751.34 346.407 2738.34C338.008 2731.35 330.246 2724.13 324.613 2720.91C332.77 2716.15 337.517 2712.51 346.421 2703.5C357.715 2692.5 370.418 2680.13 385.414 2667.92C400.41 2655.71 421.867 2644.72 449.709 2647.94M444.216 2685.05C433.122 2682.12 426.416 2682.29 415.795 2687.63C405.175 2692.97 399.406 2699.76 392.665 2705.79C385.285 2713.19 381.385 2716.91 374.822 2720.93C381.382 2724.96 385.278 2727.93 392.653 2735.33C399.389 2741.37 405.608 2749.61 415.768 2753.52C425.928 2757.42 433.015 2757.68 444.187 2755.14" stroke="#9C7369" stroke-width="5"/>
<path d="M523.51 2921.21C507.6 2935.34 473.919 2939.84 458.272 2937.83C442.624 2935.81 426.863 2931.44 406.707 2928.55C395.87 2926.99 385.451 2924.91 378.957 2925.11C383.381 2916.8 385.493 2911.22 388.31 2898.9C392.106 2883.64 396.377 2866.48 402.681 2848.25C408.985 2830.02 421.434 2809.45 446.82 2797.63M461.755 2832.07C450.768 2835.38 445.155 2839.03 438.941 2849.13C432.727 2859.22 431.407 2868.01 428.862 2876.67C426.491 2886.82 425.141 2892.03 421.682 2898.88C429.391 2898.88 434.275 2899.37 444.46 2901.81C453.383 2903.43 463.026 2907.18 473.734 2905.19C484.442 2903.21 490.603 2899.71 498.769 2891.72" stroke="#9C7369" stroke-width="5"/>
<path d="M649.236 3001.6C642.415 3021.7 615.363 3042.16 600.758 3048.09C586.152 3054.03 570.273 3057.97 551.312 3065.35C541.117 3069.33 531.025 3072.63 525.478 3076C525.197 3066.6 524.262 3060.71 520.596 3048.61C516.32 3033.48 511.512 3016.45 507.943 2997.51C504.373 2978.56 504.988 2954.56 521.195 2931.81M551.28 2954.42C543.368 2962.7 540.302 2968.63 539.91 2980.46C539.519 2992.29 542.736 3000.58 544.823 3009.36C547.801 3019.36 549.212 3024.55 549.606 3032.2C556.306 3028.41 560.796 3026.44 570.864 3023.56C579.427 3020.58 589.678 3019.11 598.001 3012.12C606.325 3005.13 609.948 2999.07 613.078 2988.11" stroke="#9C7369" stroke-width="5"/>
<path d="M812.73 2361.54C823.339 2353.6 828.572 2347.21 833.901 2332.19C839.854 2293.31 825.914 2277.97 806.29 2256.62C786.666 2235.28 766.729 2217.15 749.001 2201.03C734.478 2188.3 728.629 2181.55 721.036 2170C715.621 2177.79 703.906 2188.11 692.26 2199.66C674.532 2215.79 654.596 2233.92 634.972 2255.26C615.347 2276.6 601.408 2291.95 607.361 2330.83C612.689 2345.85 617.224 2351.29 627.833 2359.23M630.396 2357.66C630.506 2343.54 632.939 2335.35 643.633 2319.98C653.271 2306.05 663.26 2295.91 670.563 2288.2C680.139 2278.08 685.169 2273.67 695.758 2264.83C706.346 2255.99 713.013 2249.35 719.765 2240.28C726.186 2249.58 732.185 2255.15 744.112 2265.69C754.7 2274.53 759.212 2279.2 768.788 2289.32C776.091 2297.04 786.08 2307.17 795.718 2321.1C806.411 2336.47 808.845 2344.67 808.955 2358.78" stroke="#9C7369" stroke-width="5"/>
<path d="M755.465 3079.66C778.069 3094.24 790.83 3098.36 810.549 3094.89C834.766 3088.12 849.974 3076.73 861.17 3057.78" stroke="#9C7369" stroke-width="4"/>
<path d="M1009.68 2514.33C1008.91 2487.53 1005.07 2474.75 991.002 2460.58C971.653 2444.59 953.589 2438.61 931.549 2440.2" stroke="#9C7369" stroke-width="4"/>
<path d="M686.086 2373.1C662.986 2359.3 660.069 2354.3 629.106 2359.13C598.144 2363.95 587.524 2386.01 576.996 2405.33" stroke="#9C7369" stroke-width="4"/>
<path d="M835.541 3084.09C831.369 3095.73 828.447 3102.83 831.964 3118.2C847.131 3154.42 865.724 3161.37 891.764 3170.91C917.805 3180.46 942.457 3187.11 964.377 3193.01C982.087 3197.43 990.046 3200.61 1001.8 3207.15C1002.03 3197.98 1005.85 3183.8 1008.98 3168.57C1014.5 3146.66 1020.7 3122.01 1025.04 3094.75C1029.37 3067.48 1032.35 3047.95 1007.97 3017.1C996.209 3006.55 989.931 3003.9 977.685 3001.84M976.426 3002.95C983.521 3015.18 985.879 3024.75 985.421 3042.83C985.048 3059.2 982.47 3072.45 980.744 3082.41C978.481 3095.46 976.83 3101.53 973.132 3113.94C969.434 3126.34 967.652 3135.08 967.038 3145.95C957.338 3140.83 949.864 3138.73 935.273 3135.02C922.582 3132.18 916.716 3130.19 904.159 3125.78C894.582 3122.42 881.699 3118.19 867.154 3110.53C851.061 3102.09 845.01 3096.12 837.745 3084" stroke="#9C7369" stroke-width="5"/>
<path d="M648.384 3095.03C638.779 3103.04 632.587 3107.75 627.845 3122.8C622.712 3161.72 635.525 3176.97 653.561 3198.18C671.597 3219.39 689.893 3237.39 706.162 3253.39C719.487 3266.02 724.866 3272.73 731.869 3284.23C736.743 3276.4 747.338 3266.01 757.86 3254.38C773.888 3238.13 791.914 3219.86 809.631 3198.39C827.348 3176.92 839.932 3161.48 834.219 3122.64C829.253 3107.66 825.081 3102.24 815.358 3094.38M813.684 3094.72C813.689 3108.83 810.884 3118.29 801.258 3133.74C792.583 3147.73 783.559 3157.93 776.964 3165.7C768.316 3175.88 763.767 3180.32 754.188 3189.24C744.608 3198.15 738.585 3204.83 732.501 3213.94C726.583 3204.69 721.077 3199.16 710.134 3188.7C700.423 3179.93 696.277 3175.29 687.479 3165.24C680.769 3157.57 671.594 3147.5 662.71 3133.64C652.854 3118.34 650.577 3110.16 650.371 3096.04" stroke="#9C7369" stroke-width="5"/>
<path d="M859.469 2402.11C846.892 2378.41 837.773 2368.62 818.857 2362.08C794.399 2356.24 775.535 2358.8 756.467 2369.91" stroke="#9C7369" stroke-width="4"/>
<path d="M1076.22 2692.56C1088.28 2668.49 1090.97 2655.31 1085.24 2635.95C1075.7 2612.43 1062.54 2598.37 1042.26 2589.09" stroke="#9C7369" stroke-width="4"/>
<path d="M580.188 3054.13C593.589 3077.38 603.046 3086.85 622.18 3092.72C646.828 3097.71 665.591 3094.5 684.257 3082.73" stroke="#9C7369" stroke-width="4"/>
<mask id="path-101-inside-1_595_3104" fill="white">
<path d="M1440.85 75C1440.85 169.993 1363.84 247 1268.85 247C1173.85 247 1096.85 169.993 1096.85 75C1096.85 -19.993 1173.85 -97 1268.85 -97C1363.84 -97 1440.85 -19.993 1440.85 75ZM1104.54 75C1104.54 165.743 1178.1 239.305 1268.85 239.305C1359.59 239.305 1433.15 165.743 1433.15 75C1433.15 -15.7433 1359.59 -89.3052 1268.85 -89.3052C1178.1 -89.3052 1104.54 -15.7433 1104.54 75Z"/>
</mask>
<path d="M1440.85 75C1440.85 169.993 1363.84 247 1268.85 247C1173.85 247 1096.85 169.993 1096.85 75C1096.85 -19.993 1173.85 -97 1268.85 -97C1363.84 -97 1440.85 -19.993 1440.85 75ZM1104.54 75C1104.54 165.743 1178.1 239.305 1268.85 239.305C1359.59 239.305 1433.15 165.743 1433.15 75C1433.15 -15.7433 1359.59 -89.3052 1268.85 -89.3052C1178.1 -89.3052 1104.54 -15.7433 1104.54 75Z" fill="#9C7369" stroke="#9C7369" stroke-width="2" mask="url(#path-101-inside-1_595_3104)"/>
<mask id="path-102-inside-2_595_3104" fill="white">
<path d="M1478.85 74C1478.85 189.98 1384.83 284 1268.85 284C1152.87 284 1058.85 189.98 1058.85 74C1058.85 -41.9798 1152.87 -136 1268.85 -136C1384.83 -136 1478.85 -41.9798 1478.85 74ZM1068.24 74C1068.24 184.791 1158.06 274.605 1268.85 274.605C1379.64 274.605 1469.45 184.791 1469.45 74C1469.45 -36.7912 1379.64 -126.605 1268.85 -126.605C1158.06 -126.605 1068.24 -36.7912 1068.24 74Z"/>
</mask>
<path d="M1478.85 74C1478.85 189.98 1384.83 284 1268.85 284C1152.87 284 1058.85 189.98 1058.85 74C1058.85 -41.9798 1152.87 -136 1268.85 -136C1384.83 -136 1478.85 -41.9798 1478.85 74ZM1068.24 74C1068.24 184.791 1158.06 274.605 1268.85 274.605C1379.64 274.605 1469.45 184.791 1469.45 74C1469.45 -36.7912 1379.64 -126.605 1268.85 -126.605C1158.06 -126.605 1068.24 -36.7912 1068.24 74Z" fill="#9C7369" stroke="#FFE8C2" stroke-width="2" mask="url(#path-102-inside-2_595_3104)"/>
<path d="M1316.53 277.005C1318.78 292.941 1308.8 316.235 1301.79 325.369C1294.77 334.503 1286.34 342.737 1277.13 354.381C1272.18 360.642 1267.08 366.419 1264.77 370.637C1261.6 364.402 1259.15 360.762 1253.06 353.904C1245.62 345.213 1237.26 335.436 1229.04 323.927C1220.83 312.418 1213.55 296.037 1216.18 275.016M1241.74 279.668C1239.55 288.023 1239.58 293.099 1243.11 301.205C1246.64 309.312 1251.25 313.767 1255.32 318.948C1260.32 324.631 1262.84 327.631 1265.52 332.651C1268.4 327.741 1270.51 324.833 1275.73 319.352C1280 314.337 1285.79 309.742 1288.64 302.108C1291.49 294.473 1291.76 289.115 1290.18 280.628" stroke="#9C7369" stroke-width="5"/>
<path d="M1120.13 218.5C1109.45 230.541 1104.89 255.468 1105.69 266.958C1106.49 278.448 1108.97 289.97 1110.21 304.764C1110.88 312.718 1111.94 320.352 1111.53 325.144C1117.62 321.699 1121.67 320.019 1130.54 317.67C1141.54 314.534 1153.91 311.005 1167.12 305.955C1180.33 300.905 1195.44 291.273 1204.86 272.298M1180.99 262.051C1178.2 270.223 1175.37 274.441 1167.95 279.245C1160.53 284.05 1154.23 285.217 1147.97 287.284C1140.66 289.257 1136.9 290.367 1131.9 293.069C1132.21 287.386 1132.06 283.797 1130.74 276.343C1129.94 269.801 1127.66 262.775 1129.51 254.838C1131.35 246.901 1134.08 242.282 1140.09 236.086" stroke="#9C7369" stroke-width="5"/>
<path d="M1112.61 211.068C1099.77 220.761 1074.56 223.332 1063.16 221.625C1051.77 219.918 1040.48 216.539 1025.83 214.131C1017.96 212.837 1010.43 211.176 1005.62 211.202C1009.54 205.406 1011.53 201.5 1014.58 192.847C1018.57 182.131 1023.07 170.079 1029.15 157.311C1035.23 144.542 1046.03 130.235 1065.69 122.344M1074.01 146.952C1065.65 149.09 1061.22 151.571 1055.84 158.592C1050.46 165.612 1048.8 171.802 1046.25 177.875C1043.7 185.006 1042.3 188.66 1039.21 193.44C1044.9 193.576 1048.46 194.01 1055.79 195.92C1062.25 197.226 1069.07 200.056 1077.13 198.844C1085.19 197.633 1090.01 195.278 1096.66 189.774" stroke="#9C7369" stroke-width="5"/>
<path d="M1415.98 223.032C1426.28 235.4 1430.05 260.458 1428.89 271.918C1427.73 283.377 1424.9 294.816 1423.2 309.564C1422.28 317.493 1420.98 325.09 1421.24 329.893C1415.26 326.259 1411.26 324.452 1402.48 321.827C1391.58 318.349 1379.33 314.435 1366.28 308.974C1353.24 303.513 1338.43 293.413 1329.61 274.153M1353.79 264.657C1356.32 272.913 1359.01 277.217 1366.28 282.251C1373.55 287.286 1379.81 288.649 1386 290.912C1393.25 293.112 1396.97 294.339 1401.89 297.196C1401.75 291.506 1402.01 287.923 1403.57 280.514C1404.57 274 1407.07 267.05 1405.47 259.059C1403.87 251.068 1401.29 246.366 1395.47 239.984" stroke="#9C7369" stroke-width="5"/>
<path d="M1062.48 110.62C1046.46 112.156 1023.63 101.154 1014.82 93.7393C1006 86.3241 998.15 77.536 986.926 67.8182C980.892 62.5932 975.347 57.24 971.236 54.7453C977.605 51.8557 981.35 49.5715 988.472 43.7904C997.485 36.75 1007.62 28.8325 1019.49 21.1335C1031.35 13.4346 1048.04 6.89341 1068.92 10.4576M1063.14 35.7847C1054.89 33.2273 1049.82 33.0243 1041.56 36.1934C1033.3 39.3625 1028.65 43.7668 1023.29 47.6048C1017.39 52.3495 1014.28 54.7291 1009.15 57.1852C1013.93 60.2788 1016.74 62.5147 1021.98 67.9762C1026.8 72.4687 1031.14 78.4506 1038.64 81.6355C1046.14 84.8204 1051.48 85.3358 1060.03 84.1274" stroke="#9C7369" stroke-width="5"/>
<path d="M1286.47 176.214C1286.99 176.848 1287.46 177.488 1287.88 178.151C1289.3 180.381 1290.32 183.018 1291.34 186.868C1291.52 190.222 1291.39 192.66 1290.85 194.959C1290.3 197.28 1289.31 199.601 1287.59 202.682C1281.04 211.19 1278.15 214.757 1273.94 219.669C1271.62 222.265 1270.16 224.132 1268.89 226.131C1268.66 225.804 1268.42 225.474 1268.18 225.146C1267.57 224.311 1266.91 223.439 1266.25 222.558C1265.58 221.671 1264.9 220.771 1264.23 219.855C1261.63 216.294 1258.89 213.2 1256.52 210.445C1254.12 207.637 1252.14 205.223 1250.8 202.832C1248.15 198.101 1247.1 191.091 1247.55 186.855C1248.2 183.54 1249.44 180.382 1251.49 177.343C1251.34 179.115 1251.3 180.718 1251.39 182.211C1251.59 185.823 1252.5 188.703 1254.09 191.743L1254.12 191.794L1254.15 191.845C1257.17 197.021 1259.05 199.364 1261.43 202.381L1261.47 202.436L1261.52 202.487C1264.29 205.624 1265.34 207.197 1266.81 209.927L1269.01 214.004L1271.21 209.927C1272.63 207.29 1273.92 205.745 1276.79 202.487L1276.84 202.436L1276.88 202.381C1279.26 199.364 1281.14 197.021 1284.17 191.845L1284.19 191.794L1284.22 191.743C1286.72 186.96 1287.23 182.741 1286.47 176.214Z" stroke="#9C7369" stroke-width="5"/>
<path d="M1365.54 110.15C1366.33 110.025 1367.1 109.95 1367.87 109.923C1370.54 109.831 1373.35 110.294 1377.23 111.36C1380.25 112.896 1382.31 114.241 1384.05 115.867C1385.8 117.507 1387.32 119.532 1389.14 122.554C1393.26 132.466 1394.91 136.738 1397.08 142.836C1398.16 146.09 1399.04 148.273 1400.13 150.349C1399.75 150.383 1399.35 150.418 1398.96 150.457C1397.92 150.561 1396.83 150.684 1395.73 150.808C1394.62 150.932 1393.5 151.059 1392.36 151.171C1387.95 151.608 1383.87 152.396 1380.28 153.029C1376.62 153.675 1373.52 154.148 1370.76 154.091C1365.29 153.978 1358.65 151.34 1355.17 148.817C1352.62 146.6 1350.5 143.967 1348.89 140.708C1350.34 141.717 1351.71 142.549 1353.04 143.224C1356.29 144.865 1359.25 145.538 1362.69 145.707L1362.75 145.711L1362.81 145.71C1368.84 145.729 1371.83 145.298 1375.66 144.781L1375.73 144.771L1375.8 144.759C1379.93 143.968 1381.83 143.864 1384.95 143.978L1389.65 144.151L1387.19 140.175C1385.6 137.626 1384.9 135.746 1383.51 131.644L1383.49 131.578L1383.47 131.515C1382.04 127.957 1380.94 125.166 1377.96 119.97L1377.93 119.921L1377.9 119.872C1375 115.333 1371.59 112.78 1365.54 110.15Z" stroke="#9C7369" stroke-width="5"/>
<path d="M1335.18 153.452C1335.95 153.747 1336.67 154.074 1337.36 154.443C1339.7 155.697 1341.89 157.505 1344.69 160.366C1346.51 163.199 1347.6 165.389 1348.27 167.656C1348.94 169.945 1349.22 172.454 1349.25 175.973C1347.76 186.572 1347 191.087 1345.77 197.416C1345.04 200.797 1344.68 203.135 1344.56 205.489C1344.2 205.32 1343.84 205.149 1343.47 204.981C1342.52 204.552 1341.52 204.112 1340.51 203.667C1339.49 203.219 1338.45 202.764 1337.41 202.292C1333.38 200.456 1329.46 199.094 1326.04 197.842C1322.55 196.566 1319.64 195.422 1317.29 193.991C1312.63 191.157 1308.24 185.555 1306.54 181.644C1305.46 178.445 1304.98 175.099 1305.25 171.463C1306 173.073 1306.76 174.483 1307.57 175.739C1309.41 178.594 1311.47 180.59 1314.11 182.372L1314.69 182.758L1314.74 182.787C1319.94 185.826 1322.74 186.952 1326.3 188.423L1326.37 188.449L1326.43 188.473C1330.4 189.859 1332.09 190.72 1334.72 192.382L1338.67 194.871L1338.57 190.235C1338.5 187.245 1338.86 185.273 1339.75 181.037L1339.77 180.969L1339.78 180.902C1340.36 177.115 1340.83 174.159 1340.91 168.178L1340.91 168.12L1340.91 168.062C1340.72 162.682 1339.07 158.764 1335.18 153.452Z" stroke="#9C7369" stroke-width="5"/>
<path d="M1173.34 110.15C1172.55 110.025 1171.77 109.95 1171 109.923C1168.34 109.831 1165.53 110.294 1161.65 111.36C1158.63 112.896 1156.57 114.241 1154.83 115.867C1153.08 117.507 1151.56 119.532 1149.74 122.554C1145.62 132.466 1143.97 136.738 1141.8 142.836C1140.72 146.09 1139.83 148.273 1138.74 150.349C1139.13 150.383 1139.53 150.418 1139.92 150.457C1140.95 150.561 1142.04 150.684 1143.15 150.808C1144.26 150.932 1145.38 151.059 1146.52 151.171C1150.93 151.608 1155.01 152.396 1158.6 153.029C1162.26 153.675 1165.36 154.148 1168.12 154.091C1173.59 153.978 1180.23 151.34 1183.71 148.817C1186.26 146.6 1188.38 143.967 1189.99 140.708C1188.53 141.717 1187.17 142.549 1185.83 143.224C1182.59 144.865 1179.63 145.538 1176.18 145.707L1176.13 145.711L1176.07 145.71C1170.04 145.729 1167.05 145.298 1163.22 144.781L1163.15 144.771L1163.08 144.759C1158.95 143.968 1157.05 143.864 1153.93 143.978L1149.22 144.151L1151.69 140.175C1153.27 137.626 1153.97 135.746 1155.36 131.644L1155.39 131.578L1155.41 131.515C1156.84 127.957 1157.94 125.166 1160.92 119.97L1160.95 119.921L1160.98 119.872C1163.88 115.333 1167.29 112.78 1173.34 110.15Z" stroke="#9C7369" stroke-width="5"/>
<path d="M1169.23 59.6338C1168.61 59.1343 1167.99 58.6879 1167.34 58.2842C1165.09 56.8732 1162.42 55.8666 1158.52 54.8516C1155.14 54.6707 1152.67 54.8026 1150.34 55.3408C1148 55.8839 1145.65 56.8727 1142.54 58.5732C1133.94 65.0795 1130.34 67.9461 1125.37 72.1357C1122.78 74.3973 1120.92 75.8418 1118.93 77.0879C1119.24 77.308 1119.56 77.5311 1119.87 77.7588C1120.71 78.3652 1121.59 79.0162 1122.48 79.6738C1123.38 80.3352 1124.29 81.007 1125.21 81.6709C1128.8 84.2527 1131.92 86.9684 1134.7 89.3086C1137.53 91.6934 1139.97 93.6516 1142.39 94.9814C1147.17 97.6147 1154.26 98.6561 1158.54 98.21C1161.87 97.5708 1165.03 96.3594 1168.08 94.3584C1166.31 94.5007 1164.71 94.5367 1163.22 94.4541C1159.59 94.2526 1156.69 93.3562 1153.63 91.7812L1153.58 91.7549L1153.53 91.7266C1148.31 88.7301 1145.94 86.8641 1142.9 84.5059L1142.85 84.4639L1142.79 84.4189C1139.63 81.6745 1138.04 80.6362 1135.28 79.1748L1131.12 76.9658L1135.28 74.7568C1137.95 73.3448 1139.51 72.0699 1142.79 69.2207L1142.85 69.1748L1142.9 69.1328C1145.94 66.7744 1148.31 64.9103 1153.53 61.9141L1153.58 61.8848L1153.63 61.8584C1158.43 59.3877 1162.67 58.8841 1169.23 59.6338Z" stroke="#9C7369" stroke-width="5"/>
<path d="M1369.77 59.7227C1370.39 59.2232 1371.01 58.7768 1371.66 58.373C1373.91 56.962 1376.58 55.9554 1380.48 54.9404C1383.86 54.7596 1386.33 54.8914 1388.66 55.4297C1391 55.9727 1393.35 56.9615 1396.46 58.6621C1405.06 65.1684 1408.66 68.035 1413.63 72.2246C1416.22 74.4862 1418.08 75.9307 1420.07 77.1768C1419.76 77.3969 1419.44 77.62 1419.13 77.8477C1418.29 78.4541 1417.41 79.1051 1416.52 79.7627C1415.62 80.424 1414.71 81.0959 1413.79 81.7598C1410.2 84.3416 1407.08 87.0573 1404.3 89.3975C1401.47 91.7823 1399.03 93.7405 1396.61 95.0703C1391.83 97.7035 1384.74 98.745 1380.46 98.2988C1377.13 97.6596 1373.97 96.4482 1370.92 94.4473C1372.69 94.5895 1374.29 94.6256 1375.78 94.543C1379.41 94.3415 1382.31 93.4451 1385.37 91.8701L1385.42 91.8438L1385.47 91.8154C1390.69 88.819 1393.06 86.953 1396.1 84.5947L1396.15 84.5527L1396.21 84.5078C1399.37 81.7634 1400.96 80.7251 1403.72 79.2637L1407.88 77.0547L1403.72 74.8457C1401.05 73.4337 1399.49 72.1588 1396.21 69.3096L1396.15 69.2637L1396.1 69.2217C1393.06 66.8632 1390.69 64.9992 1385.47 62.0029L1385.42 61.9736L1385.37 61.9473C1380.57 59.4766 1376.33 58.9729 1369.77 59.7227Z" stroke="#9C7369" stroke-width="5"/>
<path d="M1203.69 153.452C1202.93 153.747 1202.21 154.074 1201.52 154.443C1199.18 155.697 1196.99 157.505 1194.19 160.366C1192.37 163.199 1191.28 165.389 1190.61 167.656C1189.93 169.945 1189.65 172.454 1189.62 175.973C1191.12 186.572 1191.87 191.087 1193.11 197.416C1193.84 200.797 1194.19 203.135 1194.31 205.489C1194.67 205.32 1195.04 205.149 1195.4 204.981C1196.35 204.552 1197.35 204.112 1198.37 203.667C1199.39 203.219 1200.42 202.764 1201.46 202.292C1205.49 200.456 1209.41 199.094 1212.83 197.842C1216.32 196.566 1219.24 195.422 1221.59 193.991C1226.24 191.157 1230.63 185.555 1232.34 181.644C1233.41 178.445 1233.9 175.099 1233.62 171.463C1232.87 173.073 1232.12 174.483 1231.3 175.739C1229.46 178.594 1227.4 180.59 1224.77 182.372L1224.19 182.758L1224.14 182.787C1218.94 185.826 1216.14 186.952 1212.57 188.423L1212.51 188.449L1212.44 188.473C1208.48 189.859 1206.79 190.72 1204.15 192.382L1200.2 194.871L1200.3 190.235C1200.37 187.245 1200.02 185.273 1199.12 181.037L1199.11 180.969L1199.1 180.902C1198.52 177.115 1198.04 174.159 1197.97 168.178L1197.97 168.12L1197.97 168.062C1198.16 162.682 1199.8 158.764 1203.69 153.452Z" stroke="#9C7369" stroke-width="5"/>
<path d="M1365.54 40.8457C1366.33 40.9709 1367.1 41.0464 1367.87 41.0731C1370.54 41.1653 1373.35 40.7025 1377.23 39.6357C1380.25 38.1004 1382.31 36.7552 1384.05 35.1295C1385.8 33.4888 1387.32 31.4638 1389.14 28.4418C1393.26 18.5306 1394.91 14.2581 1397.08 8.16016C1398.16 4.90591 1399.04 2.7228 1400.13 0.646685C1399.75 0.613098 1399.35 0.578044 1398.96 0.538684C1397.92 0.435232 1396.83 0.312419 1395.73 0.188355C1394.62 0.0636001 1393.5 -0.0627951 1392.36 -0.174999C1387.95 -0.61146 1383.87 -1.39969 1380.28 -2.0331C1376.62 -2.67859 1373.52 -3.15231 1370.76 -3.09512C1365.29 -2.98182 1358.65 -0.343757 1355.17 2.17954C1352.62 4.39588 1350.5 7.02888 1348.89 10.288C1350.34 9.27925 1351.71 8.44714 1353.04 7.77254C1356.29 6.13115 1359.25 5.45787 1362.69 5.28871L1362.75 5.28553L1362.81 5.28586C1368.84 5.26702 1371.83 5.69771 1375.66 6.21507L1375.73 6.22473L1375.8 6.23754C1379.93 7.02765 1381.83 7.13218 1384.95 7.01804L1389.65 6.84552L1387.19 10.8215C1385.6 13.3703 1384.9 15.2505 1383.51 19.3524L1383.49 19.4179L1383.47 19.4814C1382.04 23.0388 1380.94 25.8299 1377.96 31.0257L1377.93 31.0751L1377.9 31.1246C1375 35.6628 1371.59 38.2161 1365.54 40.8457Z" stroke="#9C7369" stroke-width="5"/>
<path d="M1335.18 -2.45716C1335.95 -2.7517 1336.67 -3.07875 1337.36 -3.44803C1339.7 -4.70154 1341.89 -6.50969 1344.69 -9.37042C1346.51 -12.2035 1347.6 -14.3934 1348.27 -16.6605C1348.94 -18.9502 1349.22 -21.4585 1349.25 -24.978C1347.76 -35.5766 1347 -40.0917 1345.77 -46.421C1345.04 -49.8023 1344.68 -52.1395 1344.56 -54.4939C1344.2 -54.3244 1343.84 -54.1534 1343.47 -53.9862C1342.52 -53.5567 1341.52 -53.1167 1340.51 -52.6716C1339.49 -52.224 1338.45 -51.7687 1337.41 -51.2969C1333.38 -49.4613 1329.46 -48.0992 1326.04 -46.8471C1322.55 -45.5709 1319.64 -44.4271 1317.29 -42.9954C1312.63 -40.1618 1308.24 -34.56 1306.54 -30.6488C1305.46 -27.4496 1304.98 -24.1036 1305.25 -20.4676C1306 -22.0776 1306.76 -23.4878 1307.57 -24.744C1309.41 -27.5993 1311.47 -29.5945 1314.11 -31.377L1314.69 -31.7628L1314.74 -31.7918C1319.94 -34.8311 1322.74 -35.9568 1326.3 -37.4278L1326.37 -37.4535L1326.43 -37.4775C1330.4 -38.864 1332.09 -39.7248 1334.72 -41.3871L1338.67 -43.8763L1338.57 -39.2402C1338.5 -36.25 1338.86 -34.2782 1339.75 -30.0418L1339.77 -29.9736L1339.78 -29.9064C1340.36 -26.1203 1340.83 -23.1634 1340.91 -17.1827L1340.91 -17.1251L1340.91 -17.0668C1340.72 -11.6872 1339.07 -7.76863 1335.18 -2.45716Z" stroke="#9C7369" stroke-width="5"/>
<path d="M1173.34 40.8457C1172.55 40.9709 1171.77 41.0464 1171 41.0731C1168.34 41.1653 1165.53 40.7025 1161.65 39.6357C1158.63 38.1004 1156.57 36.7552 1154.83 35.1295C1153.08 33.4888 1151.56 31.4638 1149.74 28.4418C1145.62 18.5306 1143.97 14.2581 1141.8 8.16016C1140.72 4.90591 1139.83 2.7228 1138.74 0.646685C1139.13 0.613098 1139.53 0.578044 1139.92 0.538684C1140.95 0.435232 1142.04 0.312419 1143.15 0.188355C1144.26 0.0636001 1145.38 -0.0627951 1146.52 -0.174999C1150.93 -0.61146 1155.01 -1.39969 1158.6 -2.0331C1162.26 -2.67859 1165.36 -3.15231 1168.12 -3.09512C1173.59 -2.98182 1180.23 -0.343757 1183.71 2.17954C1186.26 4.39588 1188.38 7.02888 1189.99 10.288C1188.53 9.27925 1187.17 8.44714 1185.83 7.77254C1182.59 6.13115 1179.63 5.45787 1176.18 5.28871L1176.13 5.28553L1176.07 5.28586C1170.04 5.26702 1167.05 5.69771 1163.22 6.21507L1163.15 6.22473L1163.08 6.23754C1158.95 7.02765 1157.05 7.13218 1153.93 7.01804L1149.22 6.84552L1151.69 10.8215C1153.27 13.3703 1153.97 15.2505 1155.36 19.3524L1155.39 19.4179L1155.41 19.4814C1156.84 23.0388 1157.94 25.8299 1160.92 31.0257L1160.95 31.0751L1160.98 31.1246C1163.88 35.6628 1167.29 38.2161 1173.34 40.8457Z" stroke="#9C7369" stroke-width="5"/>
<path d="M1203.69 -2.45716C1202.93 -2.7517 1202.21 -3.07875 1201.52 -3.44803C1199.18 -4.70154 1196.99 -6.50969 1194.19 -9.37042C1192.37 -12.2035 1191.28 -14.3934 1190.61 -16.6605C1189.93 -18.9502 1189.65 -21.4585 1189.62 -24.978C1191.12 -35.5766 1191.87 -40.0917 1193.11 -46.421C1193.84 -49.8023 1194.19 -52.1395 1194.31 -54.4939C1194.67 -54.3244 1195.04 -54.1534 1195.4 -53.9862C1196.35 -53.5567 1197.35 -53.1167 1198.37 -52.6716C1199.39 -52.224 1200.42 -51.7687 1201.46 -51.2969C1205.49 -49.4613 1209.41 -48.0992 1212.83 -46.8471C1216.32 -45.5709 1219.24 -44.4271 1221.59 -42.9954C1226.24 -40.1618 1230.63 -34.56 1232.34 -30.6488C1233.41 -27.4496 1233.9 -24.1036 1233.62 -20.4676C1232.87 -22.0776 1232.12 -23.4878 1231.3 -24.744C1229.46 -27.5993 1227.4 -29.5945 1224.77 -31.377L1224.19 -31.7628L1224.14 -31.7918C1218.94 -34.8311 1216.14 -35.9568 1212.57 -37.4278L1212.51 -37.4535L1212.44 -37.4775C1208.48 -38.864 1206.79 -39.7248 1204.15 -41.3871L1200.2 -43.8763L1200.3 -39.2402C1200.37 -36.25 1200.02 -34.2782 1199.12 -30.0418L1199.11 -29.9736L1199.1 -29.9064C1198.52 -26.1203 1198.04 -23.1634 1197.97 -17.1827L1197.97 -17.1251L1197.97 -17.0668C1198.16 -11.6872 1199.8 -7.76863 1203.69 -2.45716Z" stroke="#9C7369" stroke-width="5"/>
<path d="M1269.6 -13.918C1319.31 -13.918 1359.55 26.0169 1359.55 75.2051C1359.55 124.393 1319.31 164.329 1269.6 164.329C1219.89 164.329 1179.66 124.393 1179.66 75.2051C1179.66 26.017 1219.89 -13.9179 1269.6 -13.918Z" stroke="#9C7369" stroke-width="8"/>
</g>
<defs>
<radialGradient id="paint0_radial_595_3104" cx="0" cy="0" r="1" gradientUnits="userSpaceOnUse" gradientTransform="translate(720 1141.5) rotate(167.079) scale(610.457 670.852)">
<stop stop-color="#8F0C11"/>
<stop offset="1" stop-color="#101010"/>
</radialGradient>
<clipPath id="clip0_595_3104">
<rect width="1440" height="4063" fill="white"/>
</clipPath>
</defs>
</svg>
